<?xml version="1.0" encoding="utf-8"?>
<!-- Generator: Adobe Illustrator 23.0.3, SVG Export Plug-In . SVG Version: 6.00 Build 0)  -->
<svg version="1.1" id="Layer_1" xmlns="http://www.w3.org/2000/svg" xmlns:xlink="http://www.w3.org/1999/xlink" x="0px" y="0px"
	 viewBox="0 0 524.6 324.7" style="enable-background:new 0 0 524.6 324.7;" xml:space="preserve">
<style type="text/css">
	.st0{fill:#FFFFFF;stroke:#000000;stroke-width:0.5;stroke-miterlimit:10;}
</style>
<title>Asset 30</title>
<g>
	<g id="Layer_4">
		<polygon class="st0" points="346.1,324.2 346.1,117.2 218.1,3.2 21.1,146.2 21.1,324.2 		"/>
		<polygon class="st0" points="346.1,117.2 346.1,324.2 507.1,236.2 507.1,104.9 396.1,161.2 		"/>
		<rect x="21.1" y="189.7" class="st0" width="325" height="44.6"/>
		<rect x="21.1" y="144.7" class="st0" width="325" height="45.6"/>
		<rect x="21.1" y="233.7" class="st0" width="325" height="45.6"/>
		<rect x="21.1" y="278.7" class="st0" width="325" height="45.6"/>
		<line class="st0" x1="346.1" y1="189.2" x2="507.1" y2="189.2"/>
		<line class="st0" x1="346.1" y1="234.2" x2="507.1" y2="234.2"/>
		<line class="st0" x1="346.1" y1="279.2" x2="428.5" y2="279.2"/>
		<line class="st0" x1="346.1" y1="144.2" x2="377.5" y2="144.2"/>
		<line class="st0" x1="430.4" y1="144.2" x2="507.1" y2="144.2"/>
		<line class="st0" x1="76.4" y1="106.1" x2="333.9" y2="106.1"/>
		<line class="st0" x1="121.4" y1="73.5" x2="297" y2="73.5"/>
		<line class="st0" x1="159.5" y1="45.8" x2="266" y2="45.8"/>
		<line class="st0" x1="196.2" y1="19.2" x2="236" y2="19.2"/>
		<polyline class="st0" points="218.1,3.2 423.2,0.2 524.2,96.2 396.1,161.2 218.2,3.6 0.2,161.2 		"/>
		<rect x="149.1" y="144.2" class="st0" width="98" height="180"/>
	</g>
</g>
</svg>
