<svg xmlns="http://www.w3.org/2000/svg" viewBox="0 0 816.3 563.5"><defs><style>.cls-1{fill:none;stroke:#231f20;stroke-width:0.25px;}</style></defs><title>scrap-11</title><g id="Layer_2" data-name="Layer 2"><g id="Layer_1-2" data-name="Layer 1"><path class="cls-1" d="M485.39,561.32l-1.2-182.4v-31.2a44,44,0,0,1,0-10.24l-.27-31.28"/><polyline class="cls-1" points="487.59 324.68 453.71 324.68 441.95 324.68 430.19 324.68 425.39 324.68 423.59 324.68 346.67 326.6 344.51 326.6 341.87 326.6 339.71 326.6 337.07 326.6 335.39 326.6 333.59 326.6 332.03 326.6 328.59 326.6 317.15 325.64 311.39 326.6 307.31 326.6"/><path class="cls-1" d="M315.71,327.8l1-2.16,24.24,43,17.52,30.48L415.07,498l1.2,2.16h0c0,1,1.44,2.64,1.44,2.64s-.48,1.2,0,1.2,3.12,4.08,3.12,4.08l19.92,34.44v.6l1,2.16"/><path class="cls-1" d="M385.31,535.64a1,1,0,0,1,.57-.67c1-1.06,2-2.14,3-3.16a13.83,13.83,0,0,0,1.26-1.28,16.5,16.5,0,0,0,1-1.92c.68-1.18,1.38-2.37,2-3.6.33-.84.65-1.68,1-2.53a28.4,28.4,0,0,0,1.44-2.93c.77-2.15,1.34-4.38,2.05-6.55.34-1.08,1.16-2.48,1.43-3.58a24,24,0,0,1,1-3.05,12.47,12.47,0,0,0,.8-2.72c.35-1.88,1.37-3.6,1.84-5.45.37-1.47,1-3.1,1.34-4.58a44.84,44.84,0,0,0,1.35-7.86,12.19,12.19,0,0,0,.49-2,24.76,24.76,0,0,1,1.64-5.2,19.19,19.19,0,0,0,1.39-6.2c.2-2.82.21-5.57.67-8.37a23,23,0,0,0,.07-3.42,30.31,30.31,0,0,1,.56-4.34,32.74,32.74,0,0,0-.08-5.6c0-1.11,0-2.22,0-3.33"/><path class="cls-1" d="M386.75,374.48c1.23-.16,1.59,1.23,2.23,2a18.61,18.61,0,0,1,2.34,3.89c.27.55.7,1,.95,1.55.2-.21.29-.25.33-.55-.2,1.62.91,3.51,1.22,5.1a55.38,55.38,0,0,0,2.27,7.11,30.18,30.18,0,0,0,3.49,6.95,5,5,0,0,1,1,2.61c.15,1.25.61,2.41.86,3.63a8.48,8.48,0,0,0,.46,1.93,6.47,6.47,0,0,1,.7,1.39c.1.45,0,.93.16,1.41a16.2,16.2,0,0,1,.77,2.91,16.82,16.82,0,0,0,.68,2.43c.19.77.25,1.56.49,2.33.18.57.59,1.14.71,1.72s.15,1.39.35,2.12a47.19,47.19,0,0,1,1.86,8.92,17.33,17.33,0,0,0,.72,3.11,28.83,28.83,0,0,1,1,2.89c.35,2,.73,3.92.95,6a63.86,63.86,0,0,1,0,6.49"/><path class="cls-1" d="M446.69,467.72a3.51,3.51,0,0,1-2.08-.27c-2.32-1.53,2.15-4.36,2.9-4.91,4.72-3.46,10.13-6.23,15.24-9.08,1.07-.59,11.54-7.54,12.14-6.44"/><path class="cls-1" d="M476.59,454c-3,0-6.08-.13-9.12,0a32.29,32.29,0,0,0-8.48,1.15,7.51,7.51,0,0,1-2.4.65"/><path class="cls-1" d="M177.59,485.72s22.2-52.24,54.6-7.24c0,0,7.8,13.24,6.6,41.44,0,0,.12-.84,2-.84s38.16-7,38.16-7"/><path class="cls-1" d="M437.59,511.16H417.71l-22.56.6H376.91a10.09,10.09,0,0,1-3.32.58h-20.5l-26,.74h-18l-1.66.48h-25.8l-4.32.92H251.15s22.16,0,29.44-1,2.24.5,2.24.5l4.76-.17,8.2-.68s19.2,1.35,21.12.68a10.43,10.43,0,0,1,4.8,0l31-.68,19.44-1h18.24l16.08-.64h18.48s12.68-.51,12.68-1.28"/><path class="cls-1" d="M446.27,553.16s1.32.24,5.32.57,8,1.11,8,1.11L472.84,557,488.59,559"/><path class="cls-1" d="M436,163.64v.78l.39,1.2-.2,2.46v15.66l-.19,1.38.19,4.14v2l-.43,102.9.31,2.59v.75l-.31,6.5v25.5L436,336v8.68l-.31,1.62V349l-.3,3.42V366l.46.64v20.16s.22-.11.22.3V392l-.22.56v2.52l.47,7.86v5.76c0,.3-.25.54-.25,1.14v.84l-.44,56.94s.22-.46.22.28V514.6l-.46,8s-.12-3.64,0,.61.44,2.33.44,2.33v14.22"/><polyline class="cls-1" points="0.11 468.82 26.99 423.8 29.59 419.48 31.31 417.48 33.71 413.24 35.87 410.12 36.83 406.04 40.67 401.24 45.23 393.08 47.63 390.2 50.59 384.92 59.15 371.24 60.59 368.12 62.27 365.48 62.27 364.28 63.95 362.84 64.91 361.16 66.59 359.48 69.23 356.12 69.95 353.96 71.39 352.04"/><polyline class="cls-1" points="74.75 357.48 92.27 357.48 123.59 357.48 125.87 357.48 128.27 357.48 130.91 357.48 172.91 357.48 178.19 357.48 182.27 357.48 189.23 357.48 201.71 357.48 206.63 357.56 211.59 357.48 225.23 357.48"/><path class="cls-1" d="M69,358.28a58.79,58.79,0,0,1,.18-8.4c.35-2.33-.27-4.74.27-7,.46-2-.1-3.75-.22-5.72-.15-2.2,0-4.48,0-6.69a34.07,34.07,0,0,0-.06-4.52,10.46,10.46,0,0,1,0-3.35c.11-.64.36-1.3.43-1.93a18.92,18.92,0,0,0,0-2.13V303.8l.84-70.08.5-3.12-.5-3.12,1-32.64"/><path class="cls-1" d="M70.18,194.83h88.57c2.64,0,3.6-.64,4.08,0s0,.65,0,.65h6A9,9,0,0,1,172,196h10.64l38.08-.75,3.12.75h7.68l23.76-.75"/><path class="cls-1" d="M171.59,438.62c2.13-3.47,3.77-7.14,6.2-10.42,5.18-7,9.65-14.43,14.81-21.44,3.66-5,8.12-9.39,11-14.88a87.78,87.78,0,0,1,5.24-9.68c.34-.48,3-5.46,5.12-4.23a46.56,46.56,0,0,1-4.16,3.08,6.2,6.2,0,0,1,3.23-3.88q3.66-3.75,7.08-7.71a71.92,71.92,0,0,0,5-8c.85-1.24,2.69-4.26,4.73-4.18"/><path class="cls-1" d="M207.29,274.52c-.06.16-.11.32-.16.48a103.42,103.42,0,0,0,14.75,10.78,33.21,33.21,0,0,0,18.08,6c5.84.68,13.45,1.92,18.93-1.07"/><path class="cls-1" d="M254.09,315.62a50.74,50.74,0,0,1,10.8,30.3c.3,18.3,2.5,16.5,2.1,26.7s.05,10.8.05,10.8"/><path class="cls-1" d="M259,380.48s-8.22-21.06,0,6.54,11,29.4,11,29.4"/><path class="cls-1" d="M216.89,405.32s10.57,1.5,38.28,0,1.92,0,1.92,0"/><polyline class="cls-1" points="667.79 158.12 672.16 171.32 669.98 211.72 672.16 310.95 680.99 476.12 680.99 503.72 680.99 514.6 680.99 521.72"/><polyline class="cls-1" points="677.89 529.49 603.59 529.63 676.86 529.75 680.99 529.76"/><path class="cls-1" d="M538.79,556.92c.65-.13,8.68.48,7.37.42,7.06.3,14.14-.15,21.07,1.59,5.73,1.44,10.55,4.35,16.59,4.45a124.78,124.78,0,0,0,12.79-1.44,32.07,32.07,0,0,0,5.78-.82"/><path class="cls-1" d="M729.59,381.32c5,.58,13.58-.73,17.95-1.18,4.68-.48,10.7-1.68,15.65-1.66"/><path class="cls-1" d="M520.19,467.12l-.86.13q23.14-5.42,46.5-9.75Q553.6,459,541.4,460.58a122.48,122.48,0,0,1-14.64,2.06l1.83-.92"/><path class="cls-1" d="M507.71,443s10.64-5.76,18.88-5.76,10.64,1.44,10.64,1.44"/><path class="cls-1" d="M525,427.16s6.91-3.84,13.77-1.44"/><path class="cls-1" d="M488.6,447.8s20.18-6.73,27-1"/><polyline class="cls-1" points="670.43 161.48 670.43 239.96 674.39 269.24"/><path class="cls-1" d="M435.85,159.32h68l94.32-1.24,7.2.62s5-.62,6.24-.62H670.3"/><path class="cls-1" d="M543,35.56q9.6.72,19.08,2.24a7.93,7.93,0,0,1,3.49,1c-.4.52-.75.44-1.36.38"/><path class="cls-1" d="M522.26,33.68q48.65.14,97.24,2.24c36,1.37,71.86,2.85,107.91,2.7"/><path class="cls-1" d="M692.65,7c-14.49-2.2-28.73-6-43.44-6.75a82.71,82.71,0,0,0-39.4,7.15"/><path class="cls-1" d="M616.41,56.62A32.38,32.38,0,0,1,627,55.7c22.36-1.41,45.63-.94,67.37,5.09"/><path class="cls-1" d="M693.81,38.41s-5.39-4.26-49.8,1"/><path class="cls-1" d="M578,38.41s7.8,18.38,115.8,0"/><path class="cls-1" d="M585.81,5.26s32.29,0,34.8,1.39,0-1.39,0-1.39h-7.68s25.23-4.59,66.21.89"/><line class="cls-1" x1="651.33" y1="52.66" x2="692.12" y2="52.66"/></g><g id="Layer_4" data-name="Layer 4"><path class="cls-1" d="M126.51,4.49l3.6,367-.48-4.8h.48v.72l-.48,4.08s2-1.44,2.79,0,1.05,0,1.05,0l1.2-.24,36.48-1.2,70.56-2.4"/><path class="cls-1" d="M235.23,417.77a6.78,6.78,0,0,0,.78-4.2c-.18-2.88-.38-.48-.38-.48l-.4.48s1.58,2,1.19.3-.56-2.36-.56-2.36v-4.24s.57-38.39.09-42.26-.72-3.16-.09-6.52,1.53-.72,1.53,0"/><path class="cls-1" d="M131.92,18.51a2.18,2.18,0,0,1,1.55-.7c1,0,147.6-1.8,147.6-1.8l18.72-.48.63-1.2a2.65,2.65,0,0,1,2.85.72c1.2,1.37,1.2.36,1.2.36v3.1l.13-9.7.12,20.76.7,41.44,1.33,79.4"/><path class="cls-1" d="M306.88,110.57v70.8L308,231.29s1.92,188.88,3.12,188.88"/><path class="cls-1" d="M248,309.53v1l2.16-1s19.68-6.48,27.84-8.88S349.23,289,349.23,289l28.19-2.76"/><path class="cls-1" d="M330.27,293.93a17.21,17.21,0,0,1-3.76,1,58,58,0,0,1-7.12,1.57c-3.57.53-7.07.8-10.59,1.68-1.29.32-2.49.85-3.77,1.21-1.76.5-3.59.62-5.34,1.06a12.86,12.86,0,0,0-1.79.67,16.28,16.28,0,0,1-4.9.81,28.63,28.63,0,0,0-4.77,1,48.23,48.23,0,0,1-5.09.68c-2.14.28-4.27.65-6.41.92a35.79,35.79,0,0,1-7.17,0c-4-.32-8-.06-12-.06"/><path class="cls-1" d="M385.42,284.09l-.09-.19c1.34-.6,4.06,0,5.48.13,2.51.18,5.05.3,7.54.65a42.9,42.9,0,0,0,6.31.32c2.5,0,4.94-.39,7.44-.45s4.92,0,7.38,0c1.65,0,2.92.44,4.55.44a94.8,94.8,0,0,1,12.5.46,31,31,0,0,0,7.51.25c1-.12,2-.3,3-.49.84-.16,1.77-.09,2.56-.32.5-.14.51-.3,1.18-.33,1.15-.07,2.31.05,3.47,0,2.59-.1,5.17-.52,7.78-.5q4.46,0,8.89,0c3.81,0,7.36.92,11.14.92h9.57a23.79,23.79,0,0,0,4-.07c2.54-.43,4.74-1.31,7.37-1.34,3.48-.05,7-.25,10.45-.22a11.28,11.28,0,0,0,3.42-.4c1-.3,2-1.16,3-1.05"/><path class="cls-1" d="M558,279.57s-81.84,7.41-95,5.32"/><path class="cls-1" d="M407.61,324.29c.36,5.66-.42,11.13-1.2,16.72"/><path class="cls-1" d="M408.21,361c.11,8.16.92,16.91-2.63,24.55-1.28,2.19-2.55,4.38-3.83,6.56-.29.65-.41,1.19-.74,1.77"/><path class="cls-1" d="M394.71,404.69c4.59-7.79,8.68-16.7,16.71-21.6"/><path class="cls-1" d="M375.21,408.59l-1.21.34,3.15-1.31a356.68,356.68,0,0,1,60.14-9.28c21-1.72,41.24-1.6,62.13-1.15"/><path class="cls-1" d="M367.42,430.19l-.32.58a539.94,539.94,0,0,0,58.57,2q37.89-.42,75.78-1.42a97.6,97.6,0,0,1,22.72,1.49c1.41.68,1.87,1.08,1.87,2.61l-.23.14"/><path class="cls-1" d="M476.31,427.79c2.79-1.73,30.27-2.18,28-2.11,7.21-.22,16.06-.51,23.64-.29h-.52"/><line class="cls-1" x1="431.42" y1="434.09" x2="437.91" y2="434.09"/><path class="cls-1" d="M509.42,376.19a193.18,193.18,0,0,1,46-1.26l51.47,3.43q19.71-2.6,35.94,6.23"/><path class="cls-1" d="M636.81,377c-7.7.23-15.45.82-23.16.68.1.29-.11.15-.23.3"/><path class="cls-1" d="M513.42,408.59l-.7.08c11-1.49,22.75-1.47,33.77-1.64,11.21-.17,22.42,0,33.62,0"/><path class="cls-1" d="M535.11,412.19h46.72a7.7,7.7,0,0,1-2.41-.3"/><path class="cls-1" d="M492.21,427.19a1.53,1.53,0,0,0-.63-.3q13.21.48,26.46-.1c21.67-.68,43.92-2.09,65.22-6.58a19.6,19.6,0,0,1,4.56-.83c-.23.08-.43.24-.65.33.75,0,1.5,0,2.25,0"/><path class="cls-1" d="M486.21,439s94.8-7.49,79.8-11.62-61.8,17.8-61.8,17.8"/><path class="cls-1" d="M576.2,400.19s98.11,4,103.81,8.6,3.9-1,3.9-1"/><path class="cls-1" d="M695,425.09s-97.5-7.58-114.9-19.69"/><path class="cls-1" d="M628.11,456l-.29-.1A484,484,0,0,1,677.33,457a306.28,306.28,0,0,1,60.88,6.84"/><path class="cls-1" d="M761.61,387.29h21.46c2.86,0,6.76.16,9.89,0a13.39,13.39,0,0,0-2.35.31c-4.46.69-9-.71-13.38.22,7.75,1.72,15.46-3.38,23.13-1.3a104.71,104.71,0,0,0,15.69,3.75c-.14-.22-.28-.21-.44,0"/><path class="cls-1" d="M666.51,369.29s84.6-20.4,102.6-25.8"/><path class="cls-1" d="M697.11,75.89s-51.6,73.63,27,102.87"/><path class="cls-1" d="M755.11,5.09s-80.58,23.4-.69,115.8-41.31-36-41.31-36l47.31,31.8,8.49,13.8s-41.4-71.77-12.6-6.48"/></g></g></svg>