<svg xmlns="http://www.w3.org/2000/svg" xmlns:xlink="http://www.w3.org/1999/xlink" viewBox="0 0 817.77 574.45"><defs><style>.cls-1,.cls-3{fill:none;}.cls-2{clip-path:url(#clip-path);}.cls-3{stroke:#231f20;stroke-width:0.25px;}.cls-4{clip-path:url(#clip-path-7);}</style><clipPath id="clip-path" transform="translate(-10)"><polyline class="cls-1" points="20 20.54 20 532.45 827.77 552.45 827.77 40.53"/></clipPath><clipPath id="clip-path-7" transform="translate(-10)"><rect class="cls-1" y="86.01" width="692.2" height="508.44"/></clipPath></defs><title>scrap-21</title><g id="Layer_2" data-name="Layer 2"><g id="Layer_2-2" data-name="Layer 2"><g class="cls-2"><path class="cls-3" d="M120.73,43.56c-6.13,0-12.13.35-18.25.58-7.47.28-15.08,1.2-22.53,2-2.47.25-5.1.2-7.52.68-2.93.58-5.67,2-8.7,2.17" transform="translate(-10)"/><path class="cls-3" d="M20,46.56c2.82-.46,5.73,1.19,8.45,1.7,4.71.87,9.45.7,14.22.72,9.55.06,18.9-2.49,28.33-2.42" transform="translate(-10)"/><path class="cls-3" d="M48.62,161.36c-.42.65-1.09,1-1.59,1.65A5.93,5.93,0,0,0,49,165a36.39,36.39,0,0,0,9.42,4.69q4.91,1.2,9.88,2a145.9,145.9,0,0,0,30.34,1.16A92.51,92.51,0,0,0,120,169.16" transform="translate(-10)"/><path class="cls-3" d="M72,153a3.47,3.47,0,0,0,.34,2.33q4.14,5.33,8.55,10.43L90.85,178A85.93,85.93,0,0,0,102.32,191c3.94,1.52,4.37-3.1,7.41-4.45" transform="translate(-10)"/><path class="cls-3" d="M132,140.36c-.32,12.13-.83,24.29-1.52,36.4-.58,10.25-1.9,21-2.08,31.4" transform="translate(-10)"/><path class="cls-3" d="M142.73,136.76l-.45.22c12.19-7,29-12.07,42-15.92,8.08-2.4,21.5-7.07,31.14-6.5" transform="translate(-10)"/><path class="cls-3" d="M156.62,139.8c8.93-.68,18-1.73,27-1.24" transform="translate(-10)"/></g><polyline class="cls-3" points="156.73 153.56 156.73 154.28 156.73 43.8"/><g class="cls-2"><path class="cls-3" d="M225.79,130.18a4.2,4.2,0,0,1-2.1,2.93,53.51,53.51,0,0,0-6.25,9.54c-2.05,4-4.9,8.91-6,13.32-.65,2.58-1.75,5.8-1.87,8.45-.23,5,2.45,9.67,5.68,13.28,3.71,4.14,7.61,7.86,10.2,12.87,1.88,3.62,1.24,9.15,1.16,13.11a48.15,48.15,0,0,1-1.75,11.19c-.5,2-2,5.38-2.06,7.71" transform="translate(-10)"/><path class="cls-3" d="M165,216.46a4.22,4.22,0,0,1,2.93,2.09,53.38,53.38,0,0,0,9.54,6.26c4,2.05,8.91,4.9,13.32,6,2.58.65,5.8,1.75,8.45,1.87,5,.23,9.67-2.45,13.28-5.68,4.14-3.71,7.86-7.61,12.87-10.2,3.62-1.88,9.15-1.24,13.11-1.16a48.15,48.15,0,0,1,11.19,1.75c2,.5,5.38,2,7.71,2.06" transform="translate(-10)"/><path class="cls-3" d="M195,99.29s-55.11,47,43.8-4.26c0,0,16.2-8.82,13.2-25.54s-.24-.77-.24-.77l-.24.36" transform="translate(-10)"/></g><polyline class="cls-3" points="263.02 69.46 335.62 106.76 369.73 125.72"/><g class="cls-2"><path class="cls-3" d="M389.42,79.76c0,3.42,0,6.85,0,10.27,0,4.34.76,7.39,1.83,11.47.38,1.47.12,4.55,1.05,5.29.86,2,0,5.51.07,7.6.06,3.7,1.47,6.72,2.05,10.29.36,2.27.24,4.59.8,6.83s1.83,4.21,2.58,6.43c1.83,5.41,4.14,11.34,7.35,16.08,3.63,5.36,6.54,11.15,10.06,16.6,4.71,7.27,8.53,15.09,14.06,21.76A94.83,94.83,0,0,0,442.4,206c4.32,3.52,8,7.51,12.72,10.57,2.34,1.53,4.89,2.82,6.9,4.81" transform="translate(-10)"/><path class="cls-3" d="M322.22,66l-3.93-.47c47.8,3.81,95.43,9.4,143.19,13.59l-1.86-.52" transform="translate(-10)"/><path class="cls-3" d="M385.22,82.76c10.93,0,21.84-.17,32.77-.47,6.18-.17,12.42-.52,18.53.64a35.26,35.26,0,0,0,6.9.43" transform="translate(-10)"/><path class="cls-3" d="M462,72c13.7.39,27,2.6,40.59,4.14" transform="translate(-10)"/><path class="cls-3" d="M387,70.8a54.53,54.53,0,0,0,14-.6L424.83,69A38.57,38.57,0,0,1,446,70a1.86,1.86,0,0,0-.68,1.32c-3.63,1.06-8.87-.59-12.53-1.17,2.33.15,32.86,5.05,29,4.49l14.33,1.95q4.09,2.34,3.91.19" transform="translate(-10)"/><path class="cls-3" d="M376.73,87.56h67.9a13.86,13.86,0,0,1,6.5,0,48.41,48.41,0,0,1-11.45-1.17c-3-.6-10.38-.8-12.12-3.49A6.38,6.38,0,0,1,432,81.56" transform="translate(-10)"/><path class="cls-3" d="M421.22,80.36c-1,.1-2.33.14-3.07-.56a8.17,8.17,0,0,1,4.14-.7A156.88,156.88,0,0,1,450.63,82q8.42,1.53,16.69,3.73a4.81,4.81,0,0,0,2.41.08" transform="translate(-10)"/><path class="cls-3" d="M416.42,70.8q13,.09,26,1.29c4.35.4,8.72.84,13,1.48a63.79,63.79,0,0,0,11.41.3q7.5-.2,15,.34" transform="translate(-10)"/><path class="cls-3" d="M320.42,87.8h62.65c-3.71,0-8,.45-11.76-.18.35-1.79,7.37.49,9.11.55" transform="translate(-10)"/><path class="cls-3" d="M244.73,300.56c3.59.18,22.35-.22,19-.22a285.76,285.76,0,0,1,48.12,2.75,165.75,165.75,0,0,1,34.75,10.54c7.88,3.16,16.89,6.25,24.05,11,2.19,1.45,7.18,7.33,10.32,7.14" transform="translate(-10)"/></g><polyline class="cls-3" points="375.68 128.96 348.73 167.33 285.98 257.36 230.62 335.36"/><polyline class="cls-3" points="230.21 344.36 351.73 349.8 362.62 349.8"/><polyline class="cls-3" points="332.62 368.96 415.64 239.94 483.97 128.67 336.73 175.16"/><polyline class="cls-3" points="299.62 221.71 466.42 223.76 267.73 262.16"/><polyline class="cls-3" points="347.02 175.16 456.82 175.16 458.02 175.16 457.42 175.16"/><g class="cls-2"><path class="cls-3" d="M124.73,355.16c-.09-.11-.19-.21-.28-.31A118,118,0,0,1,184,325.21a94.18,94.18,0,0,1,23.4-1.28c3.45-.05,5.24,1.64,5.35,5.06q-14.06,17-37.58,18.85a479.92,479.92,0,0,1-54.39,10.56l.45-.24" transform="translate(-10)"/><path class="cls-3" d="M146.42,369.56a8.54,8.54,0,0,1,2.08.1,148.16,148.16,0,0,0,16,1.24c15.6.17,31.27-.59,46.81-1.84,2.65-.21,6.94-1,10.08-.7-.5-.36-14.9.52-10.32.27-6.41.35-12.76,1.09-19.18.91q11.46.3,22.94.19l29.26-.81a61.64,61.64,0,0,0,22.45-3,4.91,4.91,0,0,0-1.91,0" transform="translate(-10)"/><path class="cls-3" d="M147.62,381q-.84,1.65,2.71-.26,22.71-5,45.7-8.45,21.74-3.69,43.68-5.29a3.4,3.4,0,0,1,2.72.13c-13.15.89-26.09,4-39.16,5.56,7.84,0,15.85-.95,23.64-1.43q9.78-.6,19.56-1a4.93,4.93,0,0,1,2.55-.1" transform="translate(-10)"/></g><line class="cls-3" x1="265.42" y1="371.36" x2="271.42" y2="371.36"/><g class="cls-2"><path class="cls-3" d="M178.82,461.36l4.8,3.6" transform="translate(-10)"/></g><polyline class="cls-3" points="428.62 257.36 429.82 455.36 429.82 463.16 430 463.16 429.64 463.16 430 463.46"/><g class="cls-2"><path class="cls-3" d="M160.73,404.36s-11.85,13.32,88.32-8.4,123.57,0,123.57,0v-.48l-1.32-.84v-.34l.6.5" transform="translate(-10)"/><path class="cls-3" d="M175.82,389.36s22.35,5.55,29.7,8,9,3.11,9,3.11h3.3a1,1,0,0,0-1.56-.66c-1.2.66-1.68,0-1.68,0s-.24-.72.36-.36,2.88,1.56,2.88,1.56" transform="translate(-10)"/><path class="cls-3" d="M74.06,499.28s15.34-8.88,31.67-10.8" transform="translate(-10)"/><path class="cls-3" d="M94.94,493.52a33.4,33.4,0,0,0-7.35.28l1.65-.46c.68-.15,1.38-.27,2.07-.36.09-.1.14-.51,0-.62-.47-.48-2.1-.05-2.67,0a44.1,44.1,0,0,0-10.19,4q-2.23,1.17-4.41,2.44" transform="translate(-10)"/><path class="cls-3" d="M82,505.28a3.85,3.85,0,0,1,2.85-1.43,75.55,75.55,0,0,1,10.67-2.94,2.76,2.76,0,0,1,2.24-.12c.11,0,.48-.23.56-.24.39-.06.81,0,1.2-.12a10.14,10.14,0,0,1,1.83-.66,27.07,27.07,0,0,0-4.23.23" transform="translate(-10)"/><path class="cls-3" d="M97.1,549.92a113.79,113.79,0,0,0,13.19-.48,11.58,11.58,0,0,0,2.94-.68c.71-.26,2.09-.37,2.58-1a2,2,0,0,0-1.69.18c.33.76,3.21.69,3.44.7a45.76,45.76,0,0,0,12.41-.84,22.25,22.25,0,0,0,4.76-1.62c.44-.2,1.06-.2,1.18-.76a4.72,4.72,0,0,0-3-.34,69.06,69.06,0,0,0-9.42.58c-4.62.42-9.24.39-13.87.63,6-.07,11.93.42,17.9.12,3-.15,5.88-.33,8.9-.19,1.39.06,1.58-.22,3.61-.65l6.45-.91q5.79-.44,11.6-.52c2-.3,3.85-1.17,5.85-1.39a4.74,4.74,0,0,0,2.37-.48c.44-.24.23-.27.56-.34-4.41.57-8.88.55-13.29,1.1a105.86,105.86,0,0,0-12,2.31c-2,.49-4.09.5-6.09,1.14a9.45,9.45,0,0,1-3.14.27c2.26-.07,5,.15,7.17.19,4.62.1,9.25.06,13.88.06,2.24,0,4.56.17,6.79.06,2.55-.12,5-1.22,7.46-1.82a86.53,86.53,0,0,1,11-1.7,93,93,0,0,0,11.6-2.09c2.4-.58,5.37-1.9,7.9-1.65-.92,0-1.47.08-2.1-.48" transform="translate(-10)"/><path class="cls-3" d="M198.73,545.84c.53.2.06.16-1.42-.11q-3.93-.36-7.89-.36c-4.34-.12-8.56-1-12.9-1-3.42,0-7.16-.42-10.49.44-2.94.76-5.8,1.84-8.74,2.6s-5.59,1.65-8.41,2.43a30.5,30.5,0,0,0-3.5,1,17.66,17.66,0,0,1-3.33,1.21,24.74,24.74,0,0,1-4.63.22" transform="translate(-10)"/><path class="cls-3" d="M208,548.48a49,49,0,0,0,6.75-.05c5.3-.75,10.62-2,15.84-3.23a29.69,29.69,0,0,1,6.2-1.06c1.83,0,3.67,0,5.5,0,5.36,0,10.72-.07,16.08,0,4.42,0,8.83.28,13.25.24a74.82,74.82,0,0,1,12.51,1c1.12.22,2.25.39,3.38.5l.39-.14a8.35,8.35,0,0,1,3.19-.37c3.21-.09,6.57-.17,9.79,0,2.17.11,3.77,1.79,5.79,2.2a8.2,8.2,0,0,0,2.75-.06c.5-.09,1-.51,1.54-.43l35-.69s-23-3.39,12.48-8.67c0,0,4.14-.24,6.27,1.44s2.13-2,2.13-2" transform="translate(-10)"/><path class="cls-3" d="M511.22,501.56l.6.84-.6.72v1.2s-21.43,20.16-64,25,18.48-11.76,18.48-11.76,34.32-6.41,49.92-5.72,10.56,3.32,10.56,3.32" transform="translate(-10)"/><path class="cls-3" d="M624.38,518.24c-.29.09-.58.19-.86.3-.68.25-1.35.52-2,.82a16,16,0,0,0-2.23,1.21,4.87,4.87,0,0,0-1.58,1.48,1.51,1.51,0,0,0-.05,1.63,4.92,4.92,0,0,0,2.4,1.64,28.18,28.18,0,0,0,5.71,1.54c3.28.62,6.61,1,9.93,1.31,4.8.45,9.56.62,14.39.64,5.22,0,10.44,0,15.66,0l3.85,0a36,36,0,0,0,6.65-.14,1.6,1.6,0,0,0,.79-.11,7.48,7.48,0,0,0,2.22.76q3.9.88,7.87,1.42c5.6.88,11.34,2.16,17,2.1a11.66,11.66,0,0,0,3.44-.25,9.06,9.06,0,0,1,2.93-.44c.37,0,2.33.14,2.66-.35" transform="translate(-10)"/><path class="cls-3" d="M782.06,534.32c0-.07.05-.13.08-.19-3.23-.41-6.51-.12-9.74-.48-1.16-.13-2.31-.35-3.47-.48l-2-.1c-2-.24-3.87-.77-5.92-.89-3.9-.21-7.85,0-11.76,0-3.21,0-6.36-.31-9.55-.38a57.34,57.34,0,0,0-6.93.35,32.17,32.17,0,0,1-4,.29,13.35,13.35,0,0,0-2.19,0,4.59,4.59,0,0,1,2.6-.72,75.26,75.26,0,0,1,17.32-1.79c6.23,0,12.56-.26,18.68,1a25.14,25.14,0,0,0,5.25.79c2.59.15,5.2-.27,7.73.52,1.35.42,2.59,1.18,4,1.47.16,0,1.14,0,1.22.31-.61.13-1.54-.5-2-.69a13.71,13.71,0,0,0-4.29-.78c-1.23-.1-2.45-.1-3.68-.19a41.42,41.42,0,0,1-4.8-.91,23.92,23.92,0,0,0-5.53-.55c-4.64-.1-9.28-.19-13.93-.16-6.32,0-12.53,1-18.81,1.58-1.45.14-2.91,0-4.37,0s-2.64.37-4,.42l-1.06.06a21,21,0,0,0-2.51.06q-1,.14-2,.21c-.68-.2-1.3-1-2.06-1.32,2.94-.23,6-.05,9,0a50.13,50.13,0,0,1,6,.4,65.62,65.62,0,0,0-7.81.07,15.53,15.53,0,0,0-4.22.65c.3-.09,6.27-.13,4.51-.12a75.6,75.6,0,0,1,12.84,1,77.14,77.14,0,0,0,11.66,1,23.57,23.57,0,0,0,6-.42,20.17,20.17,0,0,1,4-.42c4.35-.08,7.65,1.64,11.59,3.33,2.13.91,5.07,2.63,7.6,2.59,5.49-.07,11,0,16.47.12,1.82,0,3.64.1,5.46.28a1,1,0,0,0,.76,0,6.92,6.92,0,0,1,0-1.12,6.31,6.31,0,0,1,.52.62,3.39,3.39,0,0,1-.08-.44" transform="translate(-10)"/><path class="cls-3" d="M627,447c-.08-.25-.15-.5-.23-.75a8.77,8.77,0,0,1-2.55-4.17l6-3.2a94.62,94.62,0,0,1,34.34-.88c6.65,1,13.74,2.75,20.36,4.32l-.36.48" transform="translate(-10)"/><path class="cls-3" d="M670.73,432.56c-.72.23-1.2.08-1.44-.46q19.35,3.27,38.64,6.86c10.08,1.62,32.21,6,44.73,4.91a10.38,10.38,0,0,0-1.93,0,2.85,2.85,0,0,0-.39-1.56c5.18-3.47,15.37-4.06,20.92-4.29a55.65,55.65,0,0,1,19.82,2.45,34.55,34.55,0,0,0-15.4,1.18,3.71,3.71,0,0,1,3.79-.11q11.63.27,23.24.94a96.82,96.82,0,0,1,14.24,1A2.28,2.28,0,0,1,819,445.8" transform="translate(-10)"/><path class="cls-3" d="M823.62,447.46c1,.81,2.29,1.85,3.68,1.85-1.94-1.12-3.9-2.19-5.9-3.21-1-1.21-1.93-1.54-2.85-1,.43.21.87.41,1.31.6a1.32,1.32,0,0,1-1.33-.51,2.92,2.92,0,0,1,1.28-.13,5.51,5.51,0,0,1-2-.3,20.56,20.56,0,0,0-4.37-.3h4.8" transform="translate(-10)"/><path class="cls-3" d="M770.73,442.4l.17-.31q15.11,2.43,30,6.09,9.61,2.32,19.32,4.32c-.67-.19-1.47-.28-2.1-.48a7.53,7.53,0,0,0-1.34-.51,2.17,2.17,0,0,0,.36,0" transform="translate(-10)"/></g><polyline class="cls-3" points="324.73 446.96 447.22 430.76 508.73 423.56"/><path class="cls-3" d="M385.78,397.35s50.44-18.19,88.84-26.59,63-10.3,63-10.3,67.62-5.51,91.11,0,16.29,0,16.29,0" transform="translate(-10)"/><path class="cls-3" d="M462,474.56s9.29-14.4,99-7.2" transform="translate(-10)"/><path class="cls-3" d="M606.73,474.63s-64.25,6.68-77.51-11.08" transform="translate(-10)"/><path class="cls-3" d="M484.22,457.8c2.38,0,4.76,0,7.14,0,3,0,5.84-.65,8.85-.64a31.46,31.46,0,0,0,6.37-.58,19.76,19.76,0,0,1,2.84-.64c1.05-.05,2.13,0,3.18,0a18,18,0,0,0-4-.18,76.29,76.29,0,0,0-9.32.25,34.82,34.82,0,0,0-8.71,1.82c-3.13,1.27-6.12,3.27-9.4,4.1" transform="translate(-10)"/><line class="cls-3" x1="624.82" y1="459.56" x2="624.82" y2="473.36"/><path class="cls-3" d="M541.82,419.36c1.66-.06,4-1.22,5.5-1.63,4.5-1.25,9.13-2,13.64-3.19a63.15,63.15,0,0,0,7.36-2.84,92.86,92.86,0,0,1,20.81-5.25c9-1.28,18.11-1.23,27.13-2.08,6-.57,12-1.87,18.09-2.34a53.77,53.77,0,0,1,14.42,1.14,12.73,12.73,0,0,0-6.15,1.35c-.74.34-1.29.43-1.21,1.28.05.51,3.89,1.83,4.38,1.63-.2-.61-.87-1.09-.7-1.77.12-.5.92-.76,1.13-1.27-.87-.55-4.73,4-4.14,3.39l-4.82,4.77a24.53,24.53,0,0,0-8.36,16.1q-1.27,9.41-2.56,18.82a150.33,150.33,0,0,0-.51,40.86l2.63,9A6.08,6.08,0,0,1,630,501" transform="translate(-10)"/><path class="cls-3" d="M536.29,406.12a5.91,5.91,0,0,0-1.26,0c33.26.6,66.49-2.22,99.66-4.24" transform="translate(-10)"/><path class="cls-3" d="M508.22,339c3.38-1,7.33-.63,10.8-.6" transform="translate(-10)"/><path class="cls-3" d="M560.42,331.16c7.46-.87,14.59-3.67,22.09-4.52,5.06-.57,10.08-.28,15.14-.28,1.86,0,3.67,0,5.53-.14,2.35-.22,6.63.37,8.67-1.06-1.48-.77-2.51-.66-4.27-.63-7.88.14-15.72,1-23.55,1.71-.74,0-1.48.11-2.21.22-.85.39-1.18,1.19-2,1.57-1,.2-2.07.44-3.09.72A15.7,15.7,0,0,1,573,329.8" transform="translate(-10)"/><path class="cls-3" d="M530.42,335.43s79.8-8.82,82.8-11.05,10.88-2.58,10.88-2.58l22.08-4.44" transform="translate(-10)"/><path class="cls-3" d="M607.82,298.16,498,128.89,499.82,237c-.58,11.44.7,23.76,1.07,35q.75,20.56.79,41.16,0,6-.06,3.63" transform="translate(-10)"/><path class="cls-3" d="M555,166.16l0-.61a148.41,148.41,0,0,0-.92,41.51,167.09,167.09,0,0,0,7.37,31.31A28.22,28.22,0,0,0,570,252.5a40.49,40.49,0,0,0,20.71,10.08c4.1.71,8.76,1.55,13,1.38" transform="translate(-10)"/><path class="cls-3" d="M608.42,273.56c-2,1.14-4.12.87-6.47-.79a67.68,67.68,0,0,1-19.61-7.64c-4.12-2.91-9.16-7.75-9.61-13.17" transform="translate(-10)"/><path class="cls-3" d="M565.82,240.56c1.55,0,3.09,0,4.64.07,10.64.08,20.94-1.16,31.49-2.33a357.92,357.92,0,0,1,45.7-2.55,63.71,63.71,0,0,1,7.43.44c2,.21,4.11.78,6.09.86l3.62-.34q10.69-.94,21.43-1c3.09,0,6.23.1,9.34.06-15.15-.22-30.24-.16-45.39-1-9.89-.55-19.63-2-29.51-2a60.69,60.69,0,0,0-9.5,1c-2.39.37-4.76,1-7.15,1.34-1.5.2-3.15-.19-4.59.21v.53" transform="translate(-10)"/><polyline class="cls-3" points="522.82 238.16 611.02 233.96 683.62 233.96"/><polyline class="cls-3" points="602.09 131.96 552.22 216.56 535.42 245.36"/><path class="cls-3" d="M705,48l-5.4-4.16S684,57.65,709.82,64.16s54.91,6.51,56.91,6.51" transform="translate(-10)"/><path class="cls-3" d="M708,53.36c-.32.57-.85.44-1.57-.4a60.34,60.34,0,0,0-18-4.12,249.8,249.8,0,0,0-27.9-1,29,29,0,0,1-8.32-.33" transform="translate(-10)"/><path class="cls-3" d="M653.94,101.33c5.42,1.5,10.45,3.61,15.68,5.43" transform="translate(-10)"/><path class="cls-3" d="M594.38,122.8a3.37,3.37,0,0,1-1.75-.69c-.17-.08-2.19-1.4-2.75-1.31,10.53-1.39,21.2-1.13,31.78-1.93a19.84,19.84,0,0,0,3.85-.54,2.65,2.65,0,0,1,.71-.18c-2.1.08-4.18-.06-6.28.19a8.39,8.39,0,0,1-4.16-.35c-.39-.16-2.17-.91-1.94-1.45.29,0,.61-.18.67-.48-.3-.25-.6-.52-.92-.75a10.14,10.14,0,0,1,2.86,0c3.13-.06,6.26,0,9.39.13,1.28.12,2.1.42,3.23.61a30.27,30.27,0,0,1-6.18.48c2.67,0,5.39-.18,8,0a27.5,27.5,0,0,1-6.22-1.21,8.17,8.17,0,0,1,1.11,0" transform="translate(-10)"/><path class="cls-3" d="M611.73,105.92c6.57.63,13.18,1.44,19.79,1.62a31,31,0,0,0,4.86-.18" transform="translate(-10)"/><path class="cls-3" d="M652.22,134.36c1.26-.46,2.77,1.43,3.55,2.12a21,21,0,0,0,6.05,3.75c2.4,1,4.67,2.13,7,3.16,1.94.83,3.07,1.07,5,1.78a8.19,8.19,0,0,0,2.68.38c1-.25-.41-1.43-.62-1.63-1.16-1.17-3-1.74-4.28-2.81a39.83,39.83,0,0,0,9.91,4.18c3.52.93,6.88,2.19,10.51,2.66,3.92.5,7.85.17,11.78.21" transform="translate(-10)"/><path class="cls-3" d="M687.73,158.8s-1.43,5.37,23.29,6.73c0,0,6.65,4.71,19.68,6.63" transform="translate(-10)"/><path class="cls-3" d="M630.69,197.66s-18.37-3,4.43-1.5,54.84,6,52.47,7.2-13.17-1.5-13.17-1.5l9.6,2.7s3.9-5,69.9,10.26c0,0,22.2,5.14,27,15.54L772.73,216" transform="translate(-10)"/><path class="cls-3" d="M623.57,276s11.09-18.7,70.09-21.68a97.94,97.94,0,0,1,23.66,1.58" transform="translate(-10)"/><path class="cls-3" d="M667.22,166.16c0,11.36.6,22.68.6,34,0,4.68-.16,9.26-.53,14-.56,7.1-1.92,14-2.7,21-.26,2.32-.05,2.61.83,4.5,2.68,5.75,1.83,13.49,1.81,19.63,0,3.71,0,7.43,0,11.14a13.12,13.12,0,0,0,.12,3.65c.34,1.17,1.5,1.55,1.68,2.5" transform="translate(-10)"/><path class="cls-3" d="M721,294.14c-.79-2.57-2.36-5.47-4.71-6.71-11.47-6.31-20.69-8.95-33.5-10-4.34-.35-8.31,2.57-12.45,3.4,0,.61-.44,1.44-1.18.88-.37-.29-.09-1.53-.1-1.95" transform="translate(-10)"/><path class="cls-3" d="M698.3,250.8s-173.76,5.91,69.84,33l-4.5-.34s4.62.8,4.74.46" transform="translate(-10)"/><line class="cls-3" x1="316.38" y1="365.73" x2="471.19" y2="341.96"/><line class="cls-3" x1="477.82" y1="125.83" x2="373.9" y2="128.89"/></g><g id="Layer_3" data-name="Layer 3"><polygon class="cls-3" points="362 0.15 360.29 10.51 360.29 12.91 360.29 17.11 350.69 89.71 350.69 98.71 336 207.31 338 207.31 347.09 209.11 368 210.91 408.29 216.15 479.09 224.15 487.97 225.15 493.01 225.79 517.49 228.91 548.39 232.21 581.39 235.51 582.89 235.51 696 249.14 700 250.21 716.69 252.15 722 207.91 722 206.41 744.59 209.11 750.89 210.15 761.69 211.21 776.99 213.01 793.19 214.81 798.29 216.31 800.09 211.51 808.49 133.21 809.99 118.21 812.39 99.01 814.49 78.15 815.39 68.15 816.89 58.15 816.89 52.51 785.31 48.31 782.99 47.71 754.19 44.71 705.59 39.61 655.25 33.79 649.49 33.31 634 31.81 627 30.43 623.33 30.43 620.21 29.95 618.05 29.95 616.61 29.71 612.05 29.47 611 29.47 609 28.99 606.05 28.99 601.49 28.27 598.13 28.15 537 20.83 502.61 17.15 442 10.27 432.29 9.15 429 8.59 418 7.63 403.01 5.47 398 4.99 373.73 2.15 365.81 0.91 362 0.15"/><path class="cls-3" d="M119.65,290.71s29.28,46.08,39.84,52.08c0,0,3.6,5,7.68,6.36" transform="translate(-10)"/><path class="cls-3" d="M14.81,456.17V539c0,4.8,1.8,18.24,1.8,18.24,0,2.76-1.8,8.16-1.8,8.16s-1.8.15,0-.82,0-11.18,0-11.18v-4.8c0-1.36,0-19.2.9-21a9,9,0,0,0,.9-3.6V503.21L13,517.34v27.27l-1.92,1v13.2a4.78,4.78,0,0,1-1,2.44v5.72l3.24-1.68,4.2-2.4h5a2.1,2.1,0,0,1,1.44-.48c1,0,4.08-.24,4.08-.24,5.52-1.68,6.48-1.68,6.48-1.68s-.48.24,2.4.24h5c.72,0,1,.24,2.4.24a14,14,0,0,1,4.08,1.2H63.89l1.2.48h4.8s-2.75,1,1.44,0,7-1.68,7-1.68h1.44" transform="translate(-10)"/><path class="cls-3" d="M17.81,568.85l-3.6-2.4-1.92-5.52s.48-1.92,1,0c.19.77.69,2.19,1.22,3.62.79,2.14,1.66,4.3,1.66,4.3l-1.08,1.2s-1.08-5,0-5-.12.09,1.32,1.39l1.44,1.3,5.71,6.62" transform="translate(-10)"/><path class="cls-3" d="M23.89,568.85h6.87c1.2,0,5.58,2.32,6.75,2.36s6-1.18,7.41-1.18h7.92l-5-1.55L46.27,568l-2.76-.85,12.93,2H67c1.42,0,3.34,2.53,3.34,2.53s.24.3,1.2.3a3.84,3.84,0,0,0,2-.76" transform="translate(-10)"/><path class="cls-3" d="M77.81,569.58H43.73l38.16-.5,5,.5h2.88s1.44,1.59,2.64,1.63,2.4.5,4.08.5" transform="translate(-10)"/><path class="cls-3" d="M102.76,568.58h25s13.2-3.09,14.4-3.09h6.48l-3.11,1.65" transform="translate(-10)"/><path class="cls-3" d="M105.25,466.87h24.24c1,0,7.58,1.44,10.51,1.44h22.61c0-.72,1-9,1-10.08v-1.92l-1-19.2,1,5.52a11.37,11.37,0,0,1,4.08-2.52H141.34c-5.14,0-5.85,1.8-6.81,1.8-.35,0-2.22-.1-4.47-.23-4-.22-9.21-.53-9.21-.53s-24.48.76-9.12.52c11.67-.18,21.47-1.17,21-1.37s1.22-.19,1.22-.19H116.38l-7.53,12.26v9.46" transform="translate(-10)"/><path class="cls-3" d="M133.57,477.15h3.84a19.6,19.6,0,0,0,7.68-1.88h12c-.9,0-4.89,1-4.48.5s-8,1.38-8.48,1.38h-1.2l13.2-5.72h6.48v-2.62c0-1.22-50.4,0-50.4,0h5.52a4.85,4.85,0,0,1,3.36.94" transform="translate(-10)"/><path class="cls-3" d="M662.37,308.38s3.34-1.92,6-1,7,1,10.32,1h9.12c1.2,0,1.92-.61,2.88-.61h6.48L693.79,303a12.3,12.3,0,0,1-.69,1c-.56.75-1.34,1.66-1.92,1.66h6.93l-.63-1.18-.81-1.51h-1.44c-.72,0-4.56,1.29-3.6,1.29h8.88l-22.32.24,24,.95-15.84.61-4.8,1.8L700,306.7l-7.92-.6h-13.2l-1.68.84-2.57-.84,2.57-.61v.61h-4.32c0,.6.75.84.75.84h-2.43v-.84h-2.4" transform="translate(-10)"/><path class="cls-3" d="M211.81,439.5s4.8.61,5.28.61h7.44s3.6-.3,4.32-.3S249,443.59,249,443.59" transform="translate(-10)"/><path class="cls-3" d="M232.69,442.89s17.28-3.39,19-3.39h4.08l7.44.61s5.28-.61,6.24-.61h5.76c4.08,0,32.16-.5,32.16-.5h37.44c.72,0,2.64-1.1,2.64,0h1v10.15l1,1.88v-7.88l.72-1V439" transform="translate(-10)"/><path class="cls-3" d="M677.65,393.26c-.22.51-.43,1-.64,1.54a12.63,12.63,0,0,1,.15-3.83c.91-1.68.62-2.77-.87-3.29-.16,2.08-.87,3-2.14,2.81-.5-.14-.63.16-.38.92a4.28,4.28,0,0,0,1.88-3q.14-3.15,1.6-1.65a24,24,0,0,0-.44-4.92c-1.56,1.5-1.9,3.42-1,5.75,1.22-2.07.75-1.43,1.22,1.77a19.57,19.57,0,0,0,1.24-7,116.89,116.89,0,0,0-.13,11.69q.11-7.17-.45-3.66a15.35,15.35,0,0,0,.39,7.88,6.42,6.42,0,0,0-.2-5.19,7.78,7.78,0,0,0,.31,3.42,29.85,29.85,0,0,0-1.62-7.47,18.57,18.57,0,0,0,2,7.06,21.23,21.23,0,0,0-1.56-8.5,14.67,14.67,0,0,0-.38,7.06q.3-4.95.46-9.9a26.6,26.6,0,0,1,.71,2.76q.38,2.69.56-1a40.89,40.89,0,0,1,.35,4.95,6.27,6.27,0,0,0,.79,4.72c1.56-3.27,1.23-5.39-1-6.39-1.91-1.42-2.63.08-2.14,4.53a48.58,48.58,0,0,1,.3-6.82,30.19,30.19,0,0,0-.08-9.2q-.84,3.9-1.57,7.81c.46-3.9.52-5,.19-3.29q-2.64,4.56.47,6.65,1.22-5.94,2.67-11.84a10.54,10.54,0,0,0,.09,6.46c.4-2.45.92-4.86,1.56-7.25-.07,2.84-.16,6.95.69.42a6.84,6.84,0,0,0-1.48,3.36c-.3-1.43-.64-2.85-1-4.26q-.79,2.14-1.71,4.23a61,61,0,0,1-.67-6.75q.76,2.81,1.46,5.62a6.72,6.72,0,0,0,.91-4.86c.91.85,1.07,2,.48,3.46-.24-1.8,0-3.76-.11-5.58a27.69,27.69,0,0,0-.82,5.94c.19-.65.38-1.29.58-1.93-.09.48-.19,1-.32,1.44.54-2.59,1.2-5.15,1.81-7.71a13.94,13.94,0,0,0-.79,3.52,74.78,74.78,0,0,0-1-12.13,39.54,39.54,0,0,1,.29,6.88c0,2.25.33,4.91-.31,7.09,0-2,.07-3.95-.07-5.94-.09-1-.18-2-.26-3-.11-.4-.22-.79-.34-1.18a12,12,0,0,1,.81-3.53c.23-.81,1.45-4,.93-4.35-.26.63-1.46,2.85-1.36,3.71.72-2.17,1.64-4.64,1.4-7a30.49,30.49,0,0,1-.51,6.48,27.42,27.42,0,0,0,.79-5.15c0-1.25-.07-2.5-.07-3.75v-4l.72-1v-3.15" transform="translate(-10)"/><path class="cls-3" d="M675.66,387.17c0,5.26-.24,11.15.12,16.61-1-6.34-2.43-12.58-3.47-18.9,0,4.24-.4,8.7.14,12.9a17.14,17.14,0,0,0,2.21-5.18,2.48,2.48,0,0,1,1.11-2.7q0,1-.66.54a4.56,4.56,0,0,1-.39-2.06c.46,7.92,0,16.08,0,24-.12,11.84-.83,23.86-.24,35.7.31,6.16-1.35,12.43-2.75,18.34,0-1-.4-2.11-.48-3.08-.05-.68-.12-4.81.9-5.29-.11,2.91-.28,5.81-.53,8.71.52-3.28,1.27-6.49,2.09-9.71.53,1.07-.56,5.18-.76,6.56.45-2.2.92-4.38,1.54-6.54" transform="translate(-10)"/><polyline class="cls-3" points="661.35 424.21 661.35 423.63 661.35 476.17"/><g class="cls-4"><path class="cls-3" d="M662.25,480.21c.12,1.21-1,2.7-1.38,3.85,3-12.5,3.67-25.58,5-38.33,0-.24-.13-6.87,1.52-8.26" transform="translate(-10)"/><path class="cls-3" d="M667.15,415v13.38c0-3.83.1-7.68,0-11.51.24,4.47.56,8.92.59,13.4-.44-5.66-.78-11.34-1.22-17,0,7.81,1.07,15.59,1.15,23.39-.9-8.7-1.75-17.42-1.81-26.18a78.41,78.41,0,0,1,2.59,21c0,3.09.39,5.6.55,8.57a33.08,33.08,0,0,1-.62,9.16,24.73,24.73,0,0,0-.69,6.52v-3.84c0,.64.22.65.09.34" transform="translate(-10)"/><path class="cls-3" d="M408,548.87a9.57,9.57,0,0,0,0,1.08,35.45,35.45,0,0,0,4.16.37,2.43,2.43,0,0,1,2.24,1.18q1.69.07,3.39.09,5.63.24,11.27.29a21,21,0,0,0,2.75,0c1.32.24,2.28,1,3.55,1.49a6.44,6.44,0,0,0,2.67.32,102.59,102.59,0,0,0,13.4-1.63c4.21-.64,8.74-1.63,13-1.94,2.38-.18,5.21-.9,7.58-.62" transform="translate(-10)"/><path class="cls-3" d="M506.05,551.87c-3.19.3-6,2.15-9.12,2.36.27-.19.4-.5.79-.72-3-.44-6.57.83-9.31,1.83-2.58.94-2.24,1.76-4.86.71-2.12-.85-3.33-.07-5.53.06-1,.07-10.77.2-11-.61" transform="translate(-10)"/><path class="cls-3" d="M445.45,557.87c1.7.17,3.29,1.29,5,1.14.24-1.84,2.6-1.18,3.91-1.14,2.73.06,5-1.48,7.63-2.19.37-.36.67-.38.91-.08,4.84-1,9.46-2.68,14.34-3.57-2.8.51,6.61-.79,6.94-1,1.38-.71,2.25-2.12,3.88-2.57.14,1.16-.48,2.33.55,3.09.67.48,1.52.19,2.24.22,2.16.1,3.66,1.47,5.71,1.86,1,.19,2.64,0,2.88,1.2" transform="translate(-10)"/><path class="cls-3" d="M510,555.47a11.05,11.05,0,0,1-3.87.6c-4.54-.05-8.68.86-13.19,1.29-3.62.33-7.13.07-10.68.53-2.56.33-5.38,0-8,0" transform="translate(-10)"/><path class="cls-3" d="M503.65,547.13q-.36-3.36,2.93-5.84a141.49,141.49,0,0,1,9.38-13.6,4,4,0,0,0-.44,1.33,13.89,13.89,0,0,1,1.89-2.94,8.68,8.68,0,0,1,2.58-2.61c.51-.92.5-2.34,1.5-3-.46,1-.87,2.83-1.94,3.31.38-1.07.77-3,1.59-3.85.63-.67,2-.75,2.36-1.69a4.35,4.35,0,0,0-.15-1.76,18.36,18.36,0,0,0-1.21-4c-.57-.93-.94-.29-1.12-1.84-.24-2,0-3.18-1-5-.76-1.3-1.08-2.85-2.44-3.83l-.09.55" transform="translate(-10)"/></g><line class="cls-3" x1="167.09" y1="479.91" x2="167.69" y2="479.91"/><g class="cls-4"><path class="cls-3" d="M36.48,86.41c.08-.08.17-.16.25-.25,3.15,1.72,4.56,4.51,6.43,7.35.92,1.39,2.36,4.61,4.05,5.08a4.61,4.61,0,0,1,0,.91c1.78,3.46,4,6.69,5.65,10.23,1.46,3.16,1.42.48,4,.74a1.27,1.27,0,0,1-.47,1.48c1.08-2.31,5.47-3.26,7.76-4a1.18,1.18,0,0,1-1.63-.7c6.39-3.09,12.83-6.25,19-9.71,1.66-.93,5-4.08,7.27-3.89" transform="translate(-10)"/><path class="cls-3" d="M294.77,511.62l.39-.31c1.08,3.14,2.39,8.29,5.45,10.14a4.28,4.28,0,0,1,1.43.5c1.44.9,2.62,3.24,3.7,4.55a1.85,1.85,0,0,0-.51-1c-.16,1.06.54,1.81,2.09,2.26q2.88,2.63,5.81,5.21l-.58-.36c1.64,1.62,3,2.9,2.56,5.26-1.25-.76-1.43-2.17-2.36-3.15a7.5,7.5,0,0,0-1.71-.94c-.25,1.58,1.28,4.54,2.08,5.86s1.12,1.31,2.59,1.35c1.72,0,5.37.78,6.81-.11,1.22-.75,2.52-3.93,3.11-4.79A103.55,103.55,0,0,1,334,526.8c1.46-1.59,4.12-3.76,4.45-6.23.21-1.63-.25-3.28-.12-5,.21-2.53.18-5,.49-7.55,0-.29.56-5.9,1.46-6.44" transform="translate(-10)"/><path class="cls-3" d="M250.29,525.51c-1.06-1.45-2.57-3.3-3.85-4.8-1.64-1.94-4.13-6.3-6.94-6.36,3.7,4.38,8.36,7.9,11.39,12.8" transform="translate(-10)"/><path class="cls-3" d="M485,486c1.38.48,9.48-1.34,9.23-1.31,4.45-.63,14.36-2.45,17.51,2.6.45-.31.48-.73.86-1.2a12.6,12.6,0,0,1,4.89-3.15,49.52,49.52,0,0,1,5.17-.17,67.32,67.32,0,0,0,6.92-1c4.39-.64,8.72-.5,12.51-3" transform="translate(-10)"/><path class="cls-3" d="M648.09,341.51c-2-.3-3.55,1.15-5.4,1.45-4.62.74-9.63.27-14.3.36,1.37.07,13.18-.66,13.12-2.41a9.5,9.5,0,0,0-3.51.6,11.38,11.38,0,0,1-3.88.6c-2,0-3.94,0-6-.13-2.27-.16-6.73-1.29-9-.47h7c2.11,0,4.22,0,6.32,0a6.44,6.44,0,0,0,2.77-.14c-.16-.64-2.66-.95-3.42-1.1-2.36-.47-5.2,0-7.63,0,.93,0,2.49-.36,3.31.1-1.2.48-2.47.88-3.62,1.48l.63-.4a9.86,9.86,0,0,0-2.82.12,4.76,4.76,0,0,0-.05,1,10.91,10.91,0,0,1-3.83.16c-2-.1-3.11-1-4.77-1.32a35.15,35.15,0,0,0-4.77.06h-7.61" transform="translate(-10)"/><path class="cls-3" d="M643.89,484.71a48.75,48.75,0,0,1,16.8,4.8" transform="translate(-10)"/><path class="cls-3" d="M510.69,278.31l-2.61,1.79,22.8-6a227.73,227.73,0,0,0,81.81-41.44" transform="translate(-10)"/></g></g></g></svg>