<svg xmlns="http://www.w3.org/2000/svg" viewBox="0 0 555.28 389.8"><defs><style>.cls-1{fill:darkgrey;stroke:black;stroke-width:0.5pt;}</style></defs><title>Asset 81</title><g id="Layer_2" data-name="Layer 2"><g id="Layer_4" data-name="Layer 4"><path vector-effect="non-scaling-stroke" class="cls-1" d="M94,38.9l3.6,14.4v24l-1.8,11.49V91.7l-70.2,15.06-12,2.94v6h7.2v31.2h-7.2v4.8l11.31,2.4,36,8.4L31.57,188.11v3.19h5.31v18l.69,7.2v14.4L5.17,244.21.88,248.9l6.69,2.4v45.6h0v19.31L4,320.9h6l7.2,4.8,44.4,8.51,133.2,20.29,124.8,21.71,108,13.09H436l7.2-4.8L526,340.1l15.6-10.73,8.4-6.07v-7.09l4.8-6.11-3.6-57.6-6-4.8h-9.6L502,240.5l2.91-8.29-1.71-7.31,2.4-48h6.77V130.23l-5.57-6.13,12-5.89,4.8-1.31,2.4-10.14,3.6-47.46-1.2-32.4v-6h-9.6L252.37.5h-75.6L97.57,26.9,84.88,31.7v6h6.45Z"/></g></g></svg>