<svg xmlns="http://www.w3.org/2000/svg" vector-effect="non-scaling-stroke" viewBox="0 0 402.91 374.91"><defs><style>.cls-1{fill:darkgrey;stroke:black;stroke-width:0.5pt;}</style></defs><title>Asset 111</title><g id="Layer_2" data-name="Layer 2"><g id="Layer_4" data-name="Layer 4"><path vector-effect="non-scaling-stroke" class="cls-1" d="M.5,179.41V222.5l2.91,2.4-2.91,6v38.4l4.8,8.4L.5,282.5v45.6s7,2.4,8.91,3.6S40.1,356.9,40.1,356.9v5.51l11.78,9,8.53,3H65.3L174.41,330.5l54-25.2,22.89-2.4,44.4-18,21.6-12a27.39,27.39,0,0,1,10.11-2.4c5,0,.07-6,5.18-6s13.51-2.4,13.51-2.4-2.31-6,0-6,2.31-27.6,2.31-27.6l-4.71-10.09,7.2-6.71V179.41h-3.6l-3.6-4.91v-6h3.6l3.6-7.2v-7.2l49.2-16.67,2.31-4.93V118.1H397.7l4.71-6V48.5l-4.71-4.8h4.71V26.9l-4.71-3.6-10.8-3.6h-4.8l-15.6-9.6L352.1,5.3,344.9.5h-7.2L222.5,28.1l-48,10.8L118.1,52.1l-10.8,2.4-9.6,3.6V80.9l-2.4,9V114.5l1.11,6,1.29,3.6-2.4,8.4,1.11,15.6L11.3,170.9l-7.2,5.51Z"/></g></g></svg>