<svg xmlns="http://www.w3.org/2000/svg" vector-effect="non-scaling-stroke" viewBox="0 0 199 313.98"><defs><style>.cls-1{fill:darkgrey;stroke:black;stroke-width:0.5pt;}</style></defs><title>Asset 171</title><g id="Layer_2" data-name="Layer 2"><g id="Layer_4" data-name="Layer 4"><path vector-effect="non-scaling-stroke"  class="cls-1" d="M148.91,74.68l-.34-6.91c-2-6.91-22.36-9-22.36-9l1.47-10.3-1.36-1.8,2.71-2.4-1.35-1,2.37-1.72-1-1.5,2.38-1.2-.34-2.1,2.71-.3-.68-2.4,3.39-.3V32h1.69l1.7-2.7h1.69v-.9l2.37.6,54.36-17.1s.54-1.8-.14-5.7S193.41.54,193.41.54L139.88,18.78l-2,1.42-1.35.08L134.79,22l-1.69.06-1,1.47-1.35,0-1,3h-2.37v3.59h-3l-.68,3.89H121.7l-.46,3.29h-1.69l.34,3.6-2,1.2,1.36,2.7-1.7,1.2L114.69,57.3l-10.81-.62c-52.83-1.8-80.34,5.1-86.1,8.1s-5.64,7.8-5.64,7.8l.56,7.8c0,1.42-3.09,5.88-3.44,6.38-2.06,3-4.32,6.23-6.2,9.3A19.26,19.26,0,0,0,1.59,99,31.35,31.35,0,0,0,.5,107.55c0,4.75,1.13,16.49,1.13,21.23L7,275.08l.13,3.9c6.32,12.84,22.71,19.8,22.71,19.8,12.19,14.7,52.3,14.7,52.3,14.7,52.53-2.1,59.74-18.9,59.74-18.9,18-7.5,21.69-23.4,21.69-23.4l-1.24-142.8c0-9.35-.87-18.71-.54-28.2a.44.44,0,0,1-.54,0c-.83-3-3.48-5-4.93-7.74A66.2,66.2,0,0,0,153,86.25c-1-1.56-2.48-2.47-3.46-4s-3.67-4.48-2-5.46a3.68,3.68,0,0,0,1.35-2.1"/></g></g></svg>