<svg xmlns="http://www.w3.org/2000/svg" vector-effect="non-scaling-stroke" viewBox="0 0 321.35 416.34"><defs><style>.cls-1{fill:darkgrey;stroke:black;stroke-width:0.5pt;}</style></defs><title>Asset 121</title><g id="Layer_2" data-name="Layer 2"><g id="Layer_4" data-name="Layer 4"><path vector-effect="non-scaling-stroke" class="cls-1" d="M64.87,189A5.52,5.52,0,0,1,63,192L60.32,197a4.06,4.06,0,0,0-.84,4.21,20.91,20.91,0,0,1-3,3.91,28.57,28.57,0,0,0-4.45,8.68A4.16,4.16,0,0,1,50.28,217c-1.21,2.05-1.34,1.9-1.61,4.29-.45,4-2.33,6.19-4.81,9.21a9.3,9.3,0,0,0-2.17,6.26c-.52,3.57-.55,4.45-1.65,7.22-4.44,11.08-8,22.39-8.71,34.38a46.26,46.26,0,0,0,1.39,16.56,222.51,222.51,0,0,0,6.06,22.76C40.62,323.11,41,329,41.52,334.8c-.52,3.72.93,7.79,1.65,11.58,1.08,5.73-1.63,11.57-3.32,17.13a16.48,16.48,0,0,1-3.29,6.63C30.72,378,26.49,386.8,22,395.37a76.07,76.07,0,0,0-4.73,7.78c-1.55,3.13-1.3,3.4,0,6.64a22,22,0,0,0,2.47,5.4l3,.35q7.25.42,14.51.25a68.55,68.55,0,0,1,7-.45c2.76-.75,13.85-6.22,14.21-6.38,5.25-2.38,13-7.48,19.15-7.58-.64-1.8.81-6.73,1-7.83.43-2,.69-4.82,1.06-6.84.6-3.26,4-8.59,5.19-11.23.68-1.48,5.18-9.1,4.68-11.75q5.61,2,11.08,4.47a99.67,99.67,0,0,1,11.17,5.37,74.72,74.72,0,0,1,10.89-.37,24.78,24.78,0,0,0,8-.22c-.25-.85-.71-.74-1.39.33q-1.55,2.28-3.08,4.58-3.5,5.81-6.54,11.85c-1.38,2.11-2.12,2.53-4.6,5.33-3.46,3.91-7.39,9.1-11.6,12.47a24.38,24.38,0,0,1,2.86,6.71,16.34,16.34,0,0,1,7.31-.85q9.44-.58,18.89-.61c7.48-.35,18.12-2.83,23.74-8.21s9.46-12.54,14.54-18.34c3.75-4.28,8.87-8,11.87-12.73a10.49,10.49,0,0,1,2-3.05c3.69-2,9,2,12.67.61a2.3,2.3,0,0,0,2.14-1.58,17.19,17.19,0,0,1,10.11-1.69c4,.48,7.72,2.25,11.88,2.3.24,4.87-2.24,9.29-4.57,13.29-1.83,3.15-2.63,5.37-2.31,8.89a9.74,9.74,0,0,1-1.34,6.65c3.9.19,39.7,2.66,39-1.5,8.53-1.6,19.11-.56,26.61-5.42,4.78-3.1,8.17-7.14,14.14-8,4.05-.57,14.72-1.62,13.55-8.26.48.87.74,1.84.63,1.33-.28-4.08,3.25-6.61,4.66-8.46,3.44-4.52,5-8.43,3.95-14.08-.67-3.61-2.83-9.47-1.05-13.15,1.4-2.87,5.84-3.94,5.48-7.93-.5-1.28-1-2.54-1.57-3.79,3.14-3.41,2.52-5.9-.19-9-1.14-1.3-3.71-4.62-4-6.27-.17-1,1.06-3.19,1.37-4,4.09-11.21,3.08-22.66,2.51-34.28-.32-6.61-.31-13,0-19.58.09-1.74.82-7.45.2-9.48-.51-1.69-2.18-3.83-3-5.26-2.36-4.31-5-7.9-7.62-12-3-4.65-5.14-10.08-7.44-15.08-2.21-4.78-6.21-9.62-9.75-13.56a82.38,82.38,0,0,0-14.81-13.49c-4.25-2.91-7.1-7.06-11.25-10.18-2.76-2.07-5.79-3.51-8.66-5.39a98.37,98.37,0,0,0-9.44-5.86c-2.07-1-4.37-1.65-6.28-3-2.5-1.78-3.58-3.73-6.56-5.23-4.69-2.36-9.57-3.51-13.85-6.58a36.73,36.73,0,0,0-17.71-7.08,92.85,92.85,0,0,0-12-.41c1.14,0,3.24.54,3.55-.94-1.43-.85-3.64-2-4.36-3.49-1.42-3,1.88-8.47,3.3-10.8,1.93-3.18,5-5.06,7.22-8.08a83.85,83.85,0,0,0,5.11-8.62c1.95-3.46,2.65-6.59,4-10.2,1.82-4.9,4.56-9.41,6.49-14.26,2.14-5.37,1.88-12,3-17.64.93-4.61.43-8.91,2.62-13.12,2.29-4.4,3.7-9,5.79-13.53,3.05-6.53,4.69-15.18,5.15-22.27.33-5-1.39-10.33-2.46-15.17-.56-2.58-.39-4.49-3.3-5.19a5.52,5.52,0,0,0-4.23.58c-4.41,2.23-6.8,6.87-9.67,10.46-2.18,2.71-4.75,5.66-7.19,8.16-3.22,3.32-7.5,5.53-10.93,8.65s-7,6-10.44,9.06-6,6.7-9.71,9.32c-2.81,2-6.07,3.8-8.3,6.5s-3,6.13-4.56,9.16a29.93,29.93,0,0,1-4,6.07c-2.09,2.86-4.94,5.73-6.64,8.82-1.38,2.51-1.59,5.36-3.11,7.8a12.57,12.57,0,0,0-2.13,3.57c-2.33,5.16-5,10.9-6.25,16.25a9.69,9.69,0,0,1-1.76,3.69,8,8,0,0,0-1.94,3.58c-.29,1.18-.6,2.36-.92,3.53-1.07.88-2.79-.07-3.84.94s-.16,1-.45,2.16c-.64,2.54-1.41,5.93-4.89,4.17-2.83-1.43-2.44-4.17-6.32-4.28a9.54,9.54,0,0,0-.83,5.82c-1.36-1.56-1.69-4-3-5.41-1.09-1.25-2.26-1.71-3.18-3.34a17.89,17.89,0,0,0-1.57-2.21c-2.48-3.54-3.25-8.49-4.94-12.52-1.93-4.61-3.51-9-6-13.39a123.79,123.79,0,0,0-8.07-13c-2.27-3.1-5.13-6.6-6.42-10.25-1.18-3.38-.09-2.54-2.59-5.06a37.34,37.34,0,0,1-7-9.94,10,10,0,0,0-1.4-2.66,22.61,22.61,0,0,0-4-2.91c-2.4-1.62-5-3-7-5-2.72-2.57-5.59-4.43-8.44-6.81C52.18,30.2,50,27.92,47.58,25.8c-1.9-1.7-3.48-3.49-5.8-4.65a5.24,5.24,0,0,1-1.41-.26c-4.66-2.76-8.23-7.53-12.68-10.65-2.28-1.6-4.69-2.55-7-4C17.24,4.06,15.52,2.65,11.32,3,9,3.16,7.23,3.47,5.45,4.87,1,8.33.65,12.4.68,18s-.49,11.41.13,17C1.72,43.15,2,51.3,3.62,59.41S8.93,75.14,11,83.21a30.47,30.47,0,0,0,3.09,7.44c1.37,2.48,1.6,4.25,2.22,7,1.13,5,3.65,8.81,6.79,12.76a148.58,148.58,0,0,0,14.13,15.37c3.57,3.41,6.84,7,10.31,10.5,1.62,1.63,2.32,1.95,3,4.06a9.87,9.87,0,0,1,.62,1.26c.14.56,0,1.35.07,1.95.45,2.73,2.8,3,3.91,5.29-.86,1.6-3.76-1.47-4.22,1.6-.34,2.32,2.49,2.53,3.64,3.82,1,1.08,1.37,2.51,2.59,3.71A98,98,0,0,0,67,166.11c.1-.17.19-.34,1.18.69.74,4,3,6.67,2.8,9.24,0,.42-.66.48-.81,1.08A57.65,57.65,0,0,1,67.87,183Z"/></g></g></svg>