<svg xmlns="http://www.w3.org/2000/svg" vector-effect="non-scaling-stroke" viewBox="0 0 519 432.16"><defs><style>.cls-1{fill:darkgrey;stroke:black;stroke-width:0.5pt;}</style></defs><title>Asset 141</title><g id="Layer_2" data-name="Layer 2"><g id="Layer_4" data-name="Layer 4"><path vector-effect="non-scaling-stroke" class="cls-1" d="M106.61,142.46l282,223.2,10.29,7.2,30,24.6,19.71,15,13.89,13.2,10.11,6H487.1l23.51-25.8s2.89-3.6,3.49-5.4l3.6-10.8s1.8-3.6,0-6.6-7.2-6.6-7.2-6.6l-58.8-42.6-23.09-16.49-109.51-82-40.8-30-23.69-18L235.1,172.46l-73.2-55.09-11.4-9.71s7.8-7.2,11.4-12.6,17.4-24.6,17.4-24.6l10.8-13.8,7.2-10.2V43.37l-1.2-2.91-9.49-32.4L177.5.61,145.1,20.06s-13.51,9-18,10.8-18,7.8-18,7.8l-27.6,1.2-81,78v5.51l10.8,18.49,12,16.8,15.6,15.6,10.8,8.4,7.8-.6,17.4-14.69Z"/></g></g></svg>