<svg xmlns="http://www.w3.org/2000/svg" viewBox="0 0 311.48 270.53"><defs><style>.cls-1{fill:darkgrey;stroke:black;stroke-width:0.5pt;}</style></defs><title>Asset 161</title><g id="Layer_2" data-name="Layer 2"><g id="Layer_4" data-name="Layer 4"><path vector-effect="non-scaling-stroke" class="cls-1" d="M303.88,105.7,201.94,6s-6.88-14.64-37,4c0,0-17.78-6.7-31.42-2.08s-37.65,11.63-51,35.42l-11.77,27-68.19,171S-1.54,251,1.79,256s27.23,21.13,51,10.56a139.23,139.23,0,0,0,39.09-26.24,21.77,21.77,0,0,0,5.37-8.08c1.93-5.1,47.68-111,47.68-111l69.89,69.9s9.34,9.35,14.45,8.89c4.16-.38,12.3,5.55,54.27-33.21,0,0,28.28-30.41,27.43-51.74l-.52-2.73Z"/></g></g></svg>