<svg xmlns="http://www.w3.org/2000/svg" vector-effect="non-scaling-stroke" viewBox="0 0 440.49 473.7"><defs><style>.cls-1{fill:darkgrey;stroke:black;stroke-width:0.5pt;}</style></defs><title>Asset 131</title><g id="Layer_2" data-name="Layer 2"><g id="Layer_4" data-name="Layer 4"><path vector-effect="non-scaling-stroke" class="cls-1" d="M307.23,231.68c-2.14,3.36-4.72,8.83-5.39,12.69-.7,4.08.68,8.32,2.13,12,2.66,6.7,8.43,7,14.59,8.46,5,1.15,8.27,6.24,10.7,10.42a7.44,7.44,0,0,1,.31,8,68.8,68.8,0,0,1-7.22,12.08c-3.06,3.8-5.51,7.83-9,11.32C311,309,309,312,305.77,313.27c-1.06.4-1.6.12-2.74.87a27.72,27.72,0,0,0-3.26,3.06c-3.61,3.35-8.53,5.74-12.53,8.67-1.83,1.34-3.09,3.24-4.89,4.56-2.08,1.52-4.28,2.78-6.28,4.46-6.1,5.13-12,11.08-18.6,15.47-4.41,2.92-10.16,5-14.05,8.65a32.27,32.27,0,0,1-7,5.45,32.89,32.89,0,0,0-7.67,6c-1.91,1.87-3.89,2.69-6.2,3.94a72.45,72.45,0,0,0-9.1,6.37c-2.92,2.23-6.06,3.77-9.12,5.77-5.41,3.54-9.92,8.47-15.54,11.66-3,1.71-6.85,2.34-9.52,4.52a48.18,48.18,0,0,1-4.66,3.52c-2.1,1.34-4.16,2.77-6.09,4.17-3.63,2.67-7.92,4.42-11.42,7.32-4.44,3.68-8.45,7.86-13.51,10.69-4,2.25-7.53,5.66-11.18,8.47-3.28,2.52-7,4.48-10.3,7-3.15,2.4-5.17,5.34-8.92,6.73-2.61,1-5.49,2-7.46,4.07a7,7,0,0,1-2.31,2c-1,.57-1.44.21-2.75,1.08a30.45,30.45,0,0,1-5.85,3.36c-3.42,1.38-6.1,4.15-9.54,5.16-3.12.92-6.16,2.14-9.31,3.1a108.88,108.88,0,0,1-11.89,2.71c-7.11,1.34-16.18,1.67-23.18-.4-1.46-.43-2.94-1.9-4.37-2.59-1-.48-2-.9-3-1.43-1.6-.86-3.37-1.37-4.93-2.24a20.83,20.83,0,0,1-3.66-2.88c-1.77-1.59-3.92-2.52-5.78-4.09A38.39,38.39,0,0,1,6.5,438a13,13,0,0,0-2.41-5.24c-1.74-2.25-2.06-3.92-2.7-6.56a35.79,35.79,0,0,1-.17-15.11c1.14-6.24.11-12.57,2.05-18.72.91-2.88,2.51-5.32,3.21-8.31s.94-6.07,1.95-9l3.6-6a10,10,0,0,1,1.15-5.28c.6-1.25,1.5-2.05,2.15-3.2.53-1,.52-2,1-3s1.45-1.35,2-2.15c.66-1,.74-2.17,1.59-3.1s2.53-1.4,3.56-2.47a48.71,48.71,0,0,1,3.55-3.8c4.25-3.61,9.47-6.75,13.18-10.75a31.55,31.55,0,0,1,6-5.6c2.66-1.65,4.18-3.64,6.54-5.78,3.6-3.26,6.76-6.48,10.49-9.51,1.86-1.5,4.38-2.11,5.94-4s3-4.83,5.22-6.5c4.16-3.14,9.34-5,13.22-8.51,1.92-1.73,3.86-3.39,5.81-5.07,2.25-1.94,4.72-3.83,6.76-5.84,3.18-3.14,6.56-6.68,10.34-8.87,4.48-2.6,8.91-5.07,12.77-8.46,2.65-2.32,5.66-2.12,8.59-3.83,1.41-.83,2.94-1.88,4.31-2.87a9.13,9.13,0,0,1,2.55-1.73c1.62-.46,3,0,4.65-.61,4.25-1.67,7.82-4.65,11.39-7.15,3.84-2.68,9.41-2.82,13.86-4.28s8.88-2.42,13-3.95c3.78-1.4,10-.29,14-.29,9.29,0,18.44-2.49,27.75-.6a49.74,49.74,0,0,0,17.21.13c2.24-.38,4,0,6.12-1,1.85-.87,3.38-3,5.37-3.38-.31-1.57.55-3.67,1-5.13.56-1.77.73-3.88,1.35-5.58.7-1.89,2.24-6.75,5.4-6.05,0,0-1.11-4.2,4.8-11.4s51.6-85.2,54-88.8,15.6-28.8,15.6-28.8l24-30L405,6.79s14.4-9.83,21.6-4.91,21.6,14.4,7.2,36-48,61.91-48,61.91l-43.29,69.47c-7.11,11.42-9.51,16.7-10.71,18.62s-18,30-18,30Z"/><path vector-effect="non-scaling-stroke" class="cls-1" d="M307.23,231.68c-2.14,3.36-4.72,8.83-5.39,12.69-.7,4.08.68,8.32,2.13,12,2.66,6.7,8.43,7,14.59,8.46,5,1.15,8.27,6.24,10.7,10.42a7.44,7.44,0,0,1,.31,8,68.8,68.8,0,0,1-7.22,12.08c-3.06,3.8-5.51,7.83-9,11.32C311,309,309,312,305.77,313.27c-1.06.4-1.6.12-2.74.87a27.72,27.72,0,0,0-3.26,3.06c-3.61,3.35-8.53,5.74-12.53,8.67-1.83,1.34-3.09,3.24-4.89,4.56-2.08,1.52-4.28,2.78-6.28,4.46-6.1,5.13-12,11.08-18.6,15.47-4.41,2.92-10.16,5-14.05,8.65a32.27,32.27,0,0,1-7,5.45,32.89,32.89,0,0,0-7.67,6c-1.91,1.87-3.89,2.69-6.2,3.94a72.45,72.45,0,0,0-9.1,6.37c-2.92,2.23-6.06,3.77-9.12,5.77-5.41,3.54-9.92,8.47-15.54,11.66-3,1.71-6.85,2.34-9.52,4.52a48.18,48.18,0,0,1-4.66,3.52c-2.1,1.34-4.16,2.77-6.09,4.17-3.63,2.67-7.92,4.42-11.42,7.32-4.44,3.68-8.45,7.86-13.51,10.69-4,2.25-7.53,5.66-11.18,8.47-3.28,2.52-7,4.48-10.3,7-3.15,2.4-5.17,5.34-8.92,6.73-2.61,1-5.49,2-7.46,4.07a7,7,0,0,1-2.31,2c-1,.57-1.44.21-2.75,1.08a30.45,30.45,0,0,1-5.85,3.36c-3.42,1.38-6.1,4.15-9.54,5.16-3.12.92-6.16,2.14-9.31,3.1a108.88,108.88,0,0,1-11.89,2.71c-7.11,1.34-16.18,1.67-23.18-.4-1.46-.43-2.94-1.9-4.37-2.59-1-.48-2-.9-3-1.43-1.6-.86-3.37-1.37-4.93-2.24a20.83,20.83,0,0,1-3.66-2.88c-1.77-1.59-3.92-2.52-5.78-4.09A38.39,38.39,0,0,1,6.5,438a13,13,0,0,0-2.41-5.24c-1.74-2.25-2.06-3.92-2.7-6.56a35.79,35.79,0,0,1-.17-15.11c1.14-6.24.11-12.57,2.05-18.72.91-2.88,2.51-5.32,3.21-8.31s.94-6.07,1.95-9l3.6-6a10,10,0,0,1,1.15-5.28c.6-1.25,1.5-2.05,2.15-3.2.53-1,.52-2,1-3s1.45-1.35,2-2.15c.66-1,.74-2.17,1.59-3.1s2.53-1.4,3.56-2.47a48.71,48.71,0,0,1,3.55-3.8c4.25-3.61,9.47-6.75,13.18-10.75a31.55,31.55,0,0,1,6-5.6c2.66-1.65,4.18-3.64,6.54-5.78,3.6-3.26,6.76-6.48,10.49-9.51,1.86-1.5,4.38-2.11,5.94-4s3-4.83,5.22-6.5c4.16-3.14,9.34-5,13.22-8.51,1.92-1.73,3.86-3.39,5.81-5.07,2.25-1.94,4.72-3.83,6.76-5.84,3.18-3.14,6.56-6.68,10.34-8.87,4.48-2.6,8.91-5.07,12.77-8.46,2.65-2.32,5.66-2.12,8.59-3.83,1.41-.83,2.94-1.88,4.31-2.87a9.13,9.13,0,0,1,2.55-1.73c1.62-.46,3,0,4.65-.61,4.25-1.67,7.82-4.65,11.39-7.15,3.84-2.68,9.41-2.82,13.86-4.28s8.88-2.42,13-3.95c3.78-1.4,10-.29,14-.29,9.29,0,18.44-2.49,27.75-.6a49.74,49.74,0,0,0,17.21.13c2.24-.38,4,0,6.12-1,1.85-.87,3.38-3,5.37-3.38-.31-1.57.55-3.67,1-5.13.56-1.77.73-3.88,1.35-5.58.7-1.89,2.24-6.75,5.4-6.05,0,0-1.11-4.2,4.8-11.4s51.6-85.2,54-88.8,15.6-28.8,15.6-28.8l24-30L405,6.79s14.4-9.83,21.6-4.91,21.6,14.4,7.2,36-48,61.91-48,61.91l-43.29,69.47c-7.11,11.42-9.51,16.7-10.71,18.62s-18,30-18,30Z"/></g></g></svg>