<svg xmlns="http://www.w3.org/2000/svg" vector-effect="non-scaling-stroke" viewBox="0 0 502.77 422.25"><defs><style>.cls-1{fill:darkgrey;stroke:black;stroke-width:0.5pt;}</style></defs><title>Asset 101</title><g id="Layer_2" data-name="Layer 2"><g id="Layer_4" data-name="Layer 4"><path vector-effect="non-scaling-stroke" class="cls-1" d="M474.37,346.48c6.09-5.19,11.82-12.42,13.54-20.31,1.74-8.06,2.51-16.69,3.61-24.87,1.46-11,1.43-22.45,2.06-33.49.64-11.36,2.58-22.51,1.85-33.9-.64-9.85-.38-19.74-.34-29.62a128.42,128.42,0,0,0-3.84-33.8c-1.79-6.65-4.07-13-5.55-19.74a79.92,79.92,0,0,0-4.52-13.67,126.62,126.62,0,0,1-6.28-21.65c-1-4.56-3.1-8.6-4.93-12.86-2.82-6.51-5.62-13-8.3-19.63a103.25,103.25,0,0,0-4.76-11.21c-1.69-4.25-1.65-8.51-2.68-12.84-1.19-5-2.75-10.41-3.44-15.57-.8-6,2.1-15,8.44-16.91,1.59-.47,3.81-.19,4.79-1.78.55-.88-.19-6.77-.25-7-1.91-8.17-8.12-9.42-14.53-11.93-3.13-1.22-6.2-3.89-9.53-4.55C436,.4,431.13,2,427.37,2.22c-16.29.94-32.49,3.4-48.78,4.54-2,.14-11.93-.89-12.78,1.28-2.65-.52-5.14-4.15-7.6-5.57C352.44-.86,343.13,1,336.74,1c-8.24,0-17-1.07-24.95,1.23C302.49,5,291.5,3.7,281.88,3.5c-4.44-.09-8.58,1.71-12.63.3a40.61,40.61,0,0,0-23.09-1.61c-4.3.94-8.31,2.43-12.74,2.51s-8.94-.22-13.11,1.85C217.3,8,218,9.82,217.92,13a164.34,164.34,0,0,0-33.77,10.65c-6,2.71-12.07,7.16-11.93,14.4-3.74,1.23-8.88.51-12.85,1.13-5.44.86-10.54,2.62-16.05,3.25-2.76.32-4.65.29-6.93,1.83-1.58,1.06-3,3.12-5,3.67s-5,0-7.07,0a67.86,67.86,0,0,0-9.83,1c-5.58.74-11.06,2-16.62,2.85-4.92.79-9.48.59-14.43.85-3.68.2-7.22,1.08-10.93,1.26a60,60,0,0,0-9.8,1.41C60,55.87,56,58.18,54.86,61c-.8,2-.43,4.86-2.91,6-1.21.57-4.63.06-5.86.23a65,65,0,0,0-13.16,3.34,34.2,34.2,0,0,1-5.91,2c-.81.17-2.92.12-3.76.67-1.94,1.25-3.37,5.19-4.6,7-2.7,4-7.36,8.09-8.46,13-.27,1.2.32,2.27-.14,3.54A13,13,0,0,1,7.9,99.46c-1.32,1.53-2.66,3.46-4,4.9-.82.87-2.36,1.53-3,2.56-.77,1.31-.21,4-.24,5.44-.05,3.19-.24,2.73,2,4.18s3.89,2.34,6.69,1.86c6.18-1.06,7-1.75,10.52,3.92a23.37,23.37,0,0,0,3.42,4.73,23.1,23.1,0,0,0,5.24,3.66c3.22,1.64,7.27,4.27,10.7,4.75a18.48,18.48,0,0,0,8.64-1.19c2.73-.94,6.74-1,9.16-2.43l9.6,2.4c4.84.64,7.65,5.65,12.21,6,4,.3,8.17,0,12.18,0,6.85.06,13.29-1.76,20.13-1.77a104.53,104.53,0,0,0,11.74-.42,65.37,65.37,0,0,0,8.81-1.27c4.25-1.1,7.68-3.45,11.67-5.12,2.7-1.12,5.35-.49,7.12-2.87.09,1.46-.15,2.32,1.2,3.11,3.65,2.12,10.89-2.84,14.3-3.48a17.6,17.6,0,0,1,5.12-.21c2.26,0,3.5-.52,5.64-.93a35.05,35.05,0,0,1,5.89-.39,147.22,147.22,0,0,0,13.79,22.73c4.48,6.06,9.33,9.08,15.46,13.42,2.77,2,5.26,4.44,8.28,6,4.43,2.33,9.22,4.25,13.81,6.23,8.23,3.54,15.33,8.69,24,11,7.76,2.07,14.53,6.28,22.27,8.29,5.48,1.43,11.67,1.35,17.33,1.05,7-.37,13.08-5.46,20.18-6.5,8.72-1.28,19.22.37,27-4.75,8.93,5.84,18.78,7.32,29.12,7.47,3.12,0,7.22-2.08,10.16-1.3a28.18,28.18,0,0,1,2.64,1.94c1.28.8,3.1,1.16,3.87,2.66,1.06,2,.33,7.4-.05,9.67-.67,4-.48,8-.54,12.12a24.26,24.26,0,0,0,8,17.54c-3,2.42-3.89,7.34,0,9a13.45,13.45,0,0,1,4.43.11c1.69.61,3.46,2.46,4.95,3.45,2.35,1.55,3.47,2.38,6.42,2.56,1.45.08,3.21-.43,4.54.52,1.32.38,1.7,1.37,1.13,3,.43,6.25.81,12.1,2.4,18.21,1.36,5.24,2.13,10.6,3.88,15.63,2,5.83.92,12.94.92,19,0,2.71.43,5.8-.47,8.42-1.5,4.36-5.8,7.63-7.87,11.86-1.59,3.25-2.22,7-3.33,10.43-1.53,4.76-2.49,7.9.48,12.45,2.86,4.38,6.71,8.9,11.54,11.22,5.44,2.62,12.75,2.55,18.66,1.88a33.08,33.08,0,0,0,8.13-2l35.26,61.48s13.2-4.21,13.2-8.41C502.27,409.9,482.46,364.78,474.37,346.48Z"/><path vector-effect="non-scaling-stroke" class="cls-1" d="M127.27,241s-17.4,5.4-23.4,10.8-27,4.43-33.6,12.72-15.6,2.28-27.6,12.48-18.6,3-27,9.6-9.69,0-9.69,0-.51,12.49,2.49,13.2,19.2-7.8,19.2-7.8,21.24-3,26.78-9,22.51-7.2,29-13.2,18.6-4.07,24-14.93,8.22,4.13,21.51-6.07,7.29-1.2,7.29-1.2L204,215.84l-3.51-5.91Z"/></g></g></svg>