<svg xmlns="http://www.w3.org/2000/svg" vector-effect="non-scaling-stroke" viewBox="0 0 364.6 275.11"><defs><style>.cls-1{fill:darkgrey;stroke:black;stroke-width:0.5pt;}</style></defs><title>Asset 151</title><g id="Layer_2" data-name="Layer 2"><g id="Layer_4" data-name="Layer 4"><polyline vector-effect="non-scaling-stroke"  class="cls-1" points="177.84 177.7 175.02 156.61 158.01 157.96 143.83 156.61 63.9 118.82 32.69 90.76 19.65 83.62 17.9 79.7 30.17 85.68 42.94 89.54 80.09 92.03 83.47 94.02 150.59 117.8 179.24 139.43 148.55 104.38 145.07 96.55 141.92 94.16 142.8 92.06 141.03 89.57 142.07 75.56 140.14 76.61 143.31 64.32 145.41 61.92 146 59.37 167.9 30.42 167.63 28.44 174.29 20.39 175.94 6.86 173.53 0.34 184.08 11.48 187.02 22.23 185.89 25.41 205.37 52.16 205.93 55.03 210.78 60.15 210.58 62.31 213.06 64.62 214.64 75.84 213.18 79.47 214.64 81.75 214.29 83.96 210.84 89.98 213.33 95.84 182.36 137.47 182.25 142.37 199.76 125.52 214.41 117.4 217.42 116.53 220.78 114.9 222.02 113.55 224.81 112.72 231.79 108.54 233.78 108.31 235.39 107.08 274.59 97.41 277.06 97.35 278.5 96.57 282.1 95.76 283.97 95.68 288.76 93.79 293.26 93.47 298.25 92.27 306.62 91.97 309.51 90.38 313.31 90.68 326.44 89.81 331.58 87.62 336.47 86.98 338.42 85.56 342.57 85.33 345.27 83.9 350.42 84.1 344.49 85.58 342.42 87.88 339.43 88.34 328.13 92.83 317.89 103.49 316.52 106.38 305.38 115.01 298.8 116.7 295.54 119.86 295.07 123.24 290.46 125.23 288.71 127.53 285.77 128.95 283.99 129.3 283.92 130.66 282.79 132.26 277.78 134.16 263.31 144 253.91 147.33 248.68 148.38 245.2 150.09 242.18 150.56 239.44 152.16 218.5 154.45 208.01 157.18 188.52 156.9 180.97 158.14 181.98 208.3 185.99 209.06 188.33 207.48 191.34 196.52 198.41 189.06 225.45 176.65 297.51 169.06 301.79 170.75 304.18 169.47 324.29 168.43 329.7 167.2 331.57 168.68 347.11 168.59 360.6 166.8 364.27 164.47 357.52 170.49 340.65 178.08 339.13 179.31 336.26 180.35 320.79 190.45 319.02 193.22 309.35 197.67 306.9 198.3 304.53 201.26 289.98 206.73 285.39 207.44 282.38 208.43 240.37 213.54 240.39 214.91 236.8 215.91 200.72 215.09 196.46 213.93 190.1 213.17 182.01 214.31 180.78 249.18 183.44 252.2 185.09 246.1 189.89 240.85 191.15 241.01 199.26 238.18 202.44 237.75 209.82 235.7 214.12 236.21 249.55 234.35 253.52 233.37 268.27 232.29 273.05 231 336.86 231.28 326.07 233.7 323.44 235.5 317.03 235.17 311.88 236.7 301.51 243.05 295.62 244.13 293.66 245.44 272.93 250.59 272.98 251.94 264.65 253.54 261.13 255.82 241.88 263.2 229.76 263.09 219 259.78 204.38 258.5 186.39 254.28 181.06 258.8 182.4 274.6 180.03 274.61 179.76 273.36 178.76 272.07 176.87 260.12 169.41 253.97 167.28 254.57 155.78 255.57 155.46 256.62 135.55 254.04 126.66 251.64 123.17 251.54 102.22 242.13 98.32 237.52 98.17 237.01 92.98 234.94 90.26 234.4 87.64 232.48 83.91 230.82 82.6 229.63 81.2 229.34 81.86 226.99 79.83 226.55 77.76 225.72 70.78 220.47 68.81 219.75 65.67 216.2 65.17 214.66 62.4 213.68 54.72 208.84 55.16 207.62 39.18 199.78 42.37 199.96 57.73 204.85 72.47 207.08 74.73 207.98 76.63 208 89.46 210.19 91.06 209.81 93.73 210.71 98.39 210.55 108.02 215.23 113.87 216.58 115.05 216.13 125.03 218.65 127.21 220.14 133.97 221.43 139.21 223.96 140.46 223.93 141.72 224.38 147.4 225.11 149.59 226.53 163.91 232.52 164.8 232.4 170.56 237.42 172.46 238.25 176.17 244.89 175.49 246.56 176.22 248.81 178.82 215.04 176.34 212.04 174.87 212.48 176.16 213.57 174.8 212.9 169.79 213.06 164.4 213.94 161.46 212.94 160.05 213.03 158.17 212.71 152.19 212.81 149.07 213.39 147.2 214.13 144.08 213.11 122.17 209.82 118.76 209.9 112.74 208.31 110.97 207.42 107.04 207.28 103.66 206.45 98.18 203.89 96.98 204 83.9 199.76 83.8 197.64 74.82 195.7 59.28 189.22 56.52 186.76 55.41 186.22 55.05 185.41 52.59 184.7 52.76 183.25 42.93 175.82 44.56 175.32 41.19 173.11 37.26 172.21 36.99 170.85 37.54 170.98 33.84 168.39 31.18 167.71 30.24 165.21 27.65 162.46 18.99 158.85 18.77 158.15 16.96 157.55 14.24 155.5 11.73 155.27 0.19 150.46 13.46 151.42 13.74 152.39 20.27 154.33 23.14 154.31 28.25 155.36 36.9 155.33 38.22 154.59 74.58 158.95 73.13 158.42 88.24 161.42 93.4 161.71 108.2 165.78 111.14 165.49 111.14 166.03 115.5 166.33 125.05 169.51 128.07 169.89 131.11 171.01 135.12 171.75 161.26 183.69 168.47 192.34 169.15 194.97 174.53 197.5 175.04 208.72 178.46 209.51 180.05 207.85 177.84 177.7"/></g></g></svg>