<svg xmlns="http://www.w3.org/2000/svg" vector-effect="non-scaling-stroke"  viewBox="0 0 316.16 380.6"><defs><style>.cls-1,.cls-2{fill:darkgrey;stroke:black;stroke-width:0.5pt;}.cls-2{fill:darkgrey;stroke:black;stroke-width:0.5pt;}</style></defs><title>Asset 91</title><g id="Layer_2" data-name="Layer 2"><g id="Layer_4" data-name="Layer 4"><path vector-effect="non-scaling-stroke" class="cls-1" d="M4.62,61.71C6,63.22,7.86,64.32,8.17,66.59c.46,3.35-1.31,7.91-1.38,11.34,0,1.95.06,3.9.06,5.84,0,9.33,1.72,18.43,3.68,27.55,1.75,8.1,4,15.75,6.23,23.66,1,3.3,3.15,6.21,3.31,9.61.14,2.88-.2,5.66.22,8.54.68,4.66,1.51,9.27,2.19,13.73a23,23,0,0,1-.07,3.22,89.21,89.21,0,0,0,1.33,14.21c1.17,8.05.47,16,3.47,23.65,1.15,2.95,2.95,5.76,3.57,8.91.44,2.23.55,4.58,1,6.85A60.49,60.49,0,0,0,36,236.15c1.34,3.1.86,6.35.86,9.65a92.62,92.62,0,0,0,.93,13.93c.69,4.69,1,9.4,1.74,14.12A68.64,68.64,0,0,1,40.39,284c.07,4.26,2.2,7.84,2.55,12A85.62,85.62,0,0,1,42,314.13c-.22,1.64.13,2.8-.21,4.36-.7,3.15-2.56,3.65-.73,7.38,1.56,3.19,4.61,6.16,6.51,9.21a129.15,129.15,0,0,0,14.12,19.25c2.81,3.08,8,9.42,12.26,11.32l2.15,0a44.26,44.26,0,0,1,10.36,3.14c7.85,3.11,16.26,2.79,24.41,5.08,6.85,1.93,14.76,4.65,21.84,4.87,6.25.19,12.6-.08,18.85-.13,6.69-.05,13,1.39,19.65,1.34,6-.05,12.18.59,18.08-.26,3.94-.56,8.08-.95,11.69-2.76a37.58,37.58,0,0,1,9.62-3.33c6.83-1.61,12.15-7,18.21-10.37,11.38-6.24,23.91-11.66,33.67-20.37,4.8-4.28,8.13-11.47,11.13-17.12,1.87-3.52,3.28-6.43,3.33-10.49,0-3.5-.11-7-.11-10.53,0-8.32-.29-16.68-.09-25,.21-8.48,4.07-16,6.15-24,3.2-12.32,2.4-25,3.93-37.52.64-5.2,2-10.06,2-15.31,0-2.65,0-5.3,0-8a41.2,41.2,0,0,1,2.39-13.43,71.75,71.75,0,0,0,3.64-20.91c.13-5.93-.86-12.52.15-18.37.69-4.06,2.5-7.75,3.17-11.86.87-5.32,1.45-10.82,1.87-16.19.3-4,.73-8,.82-11.94.05-2.7-.35-5.37.2-8,.8-3.87,2-6.7,2.13-10.7.11-3.38.91-6.57,3.25-9.1.94-1,2.33-1.63,3.12-2.8.93-1.37.19-1.24.77-2.75,1.46-3.87,3.75-7.41,4.58-11.59a42.51,42.51,0,0,0,.34-13.37,18.23,18.23,0,0,0-4.51-9.31c-2.34-2.57-5.19-3.86-7.77-6.05a28.78,28.78,0,0,0-11.62-6.43c-7.56-2.27-15-4.76-22.85-5.73-9.23-1.13-16.78-6.82-26.21-8.27-3.68-.56-7.37-1-11-1.7-5.57-1.1-11.33-3.06-17-3.42-5.86-.38-12,0-17.85.09-4.43.06-8.39-1.22-12.86-1.11C179.76,2,176.29.69,172.43.57c-6-.19-12.11.07-18.15,0-6.66-.08-12.57,2.09-19,2.48-6.29.38-12.74,0-19.06,0-4.67,0-9.38-.19-14,0-5.19.17-10,2.81-15.06,3.93C82.18,8,77.3,7.87,72.36,8.73c-4.22.73-8.44,0-12.68.18s-3.15.41-5.67,2.46a34.87,34.87,0,0,1-13.17,6.39c-4.7,1-9.49.79-13.92,2.9-3.7,1.76-6.43,4.74-10.31,6.45S10.89,30.84,8,34c-1,1.1-2.42,2-3.33,3.16s-1.18,3.27-1.78,4.6A40.78,40.78,0,0,0,.5,49.8,16.91,16.91,0,0,0,4.62,61.71"/><path vector-effect="non-scaling-stroke" class="cls-2" d="M4.62,61.71C6,63.22,7.86,64.32,8.17,66.59c.46,3.35-1.31,7.91-1.38,11.34,0,1.95.06,3.9.06,5.84,0,9.33,1.72,18.43,3.68,27.55,1.75,8.1,4,15.75,6.23,23.66,1,3.3,3.15,6.21,3.31,9.61.14,2.88-.2,5.66.22,8.54.68,4.66,1.51,9.27,2.19,13.73a23,23,0,0,1-.07,3.22,89.21,89.21,0,0,0,1.33,14.21c1.17,8.05.47,16,3.47,23.65,1.15,2.95,2.95,5.76,3.57,8.91.44,2.23.55,4.58,1,6.85A60.49,60.49,0,0,0,36,236.15c1.34,3.1.86,6.35.86,9.65a92.62,92.62,0,0,0,.93,13.93c.69,4.69,1,9.4,1.74,14.12A68.64,68.64,0,0,1,40.39,284c.07,4.26,2.2,7.84,2.55,12A85.62,85.62,0,0,1,42,314.13c-.22,1.64.13,2.8-.21,4.36-.7,3.15-2.56,3.65-.73,7.38,1.56,3.19,4.61,6.16,6.51,9.21a129.15,129.15,0,0,0,14.12,19.25c2.81,3.08,8,9.42,12.26,11.32l2.15,0a44.26,44.26,0,0,1,10.36,3.14c7.85,3.11,16.26,2.79,24.41,5.08,6.85,1.93,14.76,4.65,21.84,4.87,6.25.19,12.6-.08,18.85-.13,6.69-.05,13,1.39,19.65,1.34,6-.05,12.18.59,18.08-.26,3.94-.56,8.08-.95,11.69-2.76a37.58,37.58,0,0,1,9.62-3.33c6.83-1.61,12.15-7,18.21-10.37,11.38-6.24,23.91-11.66,33.67-20.37,4.8-4.28,8.13-11.47,11.13-17.12,1.87-3.52,3.28-6.43,3.33-10.49,0-3.5-.11-7-.11-10.53,0-8.32-.29-16.68-.09-25,.21-8.48,4.07-16,6.15-24,3.2-12.32,2.4-25,3.93-37.52.64-5.2,2-10.06,2-15.31,0-2.65,0-5.3,0-8a41.2,41.2,0,0,1,2.39-13.43,71.75,71.75,0,0,0,3.64-20.91c.13-5.93-.86-12.52.15-18.37.69-4.06,2.5-7.75,3.17-11.86.87-5.32,1.45-10.82,1.87-16.19.3-4,.73-8,.82-11.94.05-2.7-.35-5.37.2-8,.8-3.87,2-6.7,2.13-10.7.11-3.38.91-6.57,3.25-9.1.94-1,2.33-1.63,3.12-2.8.93-1.37.19-1.24.77-2.75,1.46-3.87,3.75-7.41,4.58-11.59a42.51,42.51,0,0,0,.34-13.37,18.23,18.23,0,0,0-4.51-9.31c-2.34-2.57-5.19-3.86-7.77-6.05a28.78,28.78,0,0,0-11.62-6.43c-7.56-2.27-15-4.76-22.85-5.73-9.23-1.13-16.78-6.82-26.21-8.27-3.68-.56-7.37-1-11-1.7-5.57-1.1-11.33-3.06-17-3.42-5.86-.38-12,0-17.85.09-4.43.06-8.39-1.22-12.86-1.11C179.76,2,176.29.69,172.43.57c-6-.19-12.11.07-18.15,0-6.66-.08-12.57,2.09-19,2.48-6.29.38-12.74,0-19.06,0-4.67,0-9.38-.19-14,0-5.19.17-10,2.81-15.06,3.93C82.18,8,77.3,7.87,72.36,8.73c-4.22.73-8.44,0-12.68.18s-3.15.41-5.67,2.46a34.87,34.87,0,0,1-13.17,6.39c-4.7,1-9.49.79-13.92,2.9-3.7,1.76-6.43,4.74-10.31,6.45S10.89,30.84,8,34c-1,1.1-2.42,2-3.33,3.16s-1.18,3.27-1.78,4.6A40.78,40.78,0,0,0,.5,49.8,16.91,16.91,0,0,0,4.62,61.71Z"/></g></g></svg>